<?xml version="1.0" standalone="no"?>
<!DOCTYPE svg PUBLIC "-//W3C//DTD SVG 1.1//EN" "http://www.w3.org/Graphics/SVG/1.1/DTD/svg11.dtd" >
<svg xmlns="http://www.w3.org/2000/svg" xmlns:xlink="http://www.w3.org/1999/xlink" version="1.1">
<metadata>
Created by FontForge 20200427 at Fri Nov 28 10:22:01 2003
 By www
Copyright (c) Mark Simonson, 2000 and 2003. All rights reserved.
</metadata>
<defs>
<font id="FeltTipSenior" horiz-adv-x="373" >
  <font-face 
    font-family="Felt Tip Senior"
    font-weight="400"
    font-stretch="normal"
    units-per-em="1000"
    panose-1="2 0 4 0 0 0 0 0 0 0"
    ascent="800"
    descent="-200"
    x-height="242"
    cap-height="409"
    bbox="-88 -351 1047 737"
    underline-thickness="20"
    underline-position="-143"
    unicode-range="U+0020-FB02"
  />
<missing-glyph horiz-adv-x="500" 
d="M63 0v643h375v-643h-375zM125 63h250v518h-250v-518z" />
    <glyph glyph-name=".notdef" horiz-adv-x="500" 
d="M63 0v643h375v-643h-375zM125 63h250v518h-250v-518z" />
    <glyph glyph-name="NULL" horiz-adv-x="0" 
 />
    <glyph glyph-name="nonmarkingreturn" horiz-adv-x="261" 
 />
    <glyph glyph-name="space" unicode=" " horiz-adv-x="261" 
 />
    <glyph glyph-name="exclam" unicode="!" horiz-adv-x="211" 
d="M154 530q0 -41 -1 -124t-1 -124q0 -65 -36 -65q-19 0 -31 25q-11 22 -11 43q0 27 3 84t3 85q0 15 -1.5 43.5t-1.5 43.5q0 32 37 32q24 0 32 -9t8 -34zM146 66q0 -21 -18 -54q-21 -37 -39 -37q-31 0 -31 78q0 51 50 51q23 0 30.5 -8t7.5 -30z" />
    <glyph glyph-name="quotedbl" unicode="&#x22;" horiz-adv-x="322" 
d="M271 421q0 -85 -2 -99q-7 -73 -38 -73q-14 0 -23 12.5t-9 26.5q0 20 3 60.5t3 60.5q0 40 -6 56q-11 29 -11 43q0 26 29 26q39 0 50 -41q4 -16 4 -72zM144 486q0 -18 -8 -79q-8 -64 -12 -77q-11 -30 -42 -30q-15 0 -27 22q-10 19 -10 36q0 6 13 49.5t13 69.5q0 5 -1.5 15
t-1.5 15q0 27 26 27q18 0 34 -15t16 -33z" />
    <glyph glyph-name="numbersign" unicode="#" horiz-adv-x="783" 
d="M806 283q0 -14 -23 -28.5t-38 -14.5q-195 0 -248 -10q-19 -3 -39.5 -8t-29 -21.5t-8.5 -24.5q0 -16 40 -16q128 0 153 -6t25 -27q0 -24 -55 -28q-29 -2 -165 -2q-41 0 -55 -26q-47 -87 -77 -87q-32 0 -32 25q0 12 16 34t16 36q0 16 -24 16q-37 0 -47 -18q-6 -18 -11 -35
q-8 -18 -39 -18q-29 0 -29 18q0 5 5.5 14.5t5.5 13.5q0 8 -54 10t-54 24q0 29 41 40q38 5 76 11q42 8 42 33q0 15 -29 15q-17 0 -49.5 -10t-50.5 -10q-29 0 -29 23q0 26 32 38q26 7 53 13q36 3 71 5q43 3 58 33l36 74q31 57 49 57q15 0 25 -11.5t10 -27.5q0 -12 -19.5 -46.5
t-19.5 -50.5q0 -13 14 -13q35 0 57 54q16 49 32.5 100.5t37.5 51.5q12 0 25 -12t13 -25q0 -4 -23 -59t-23 -70q0 -16 9 -21q6 -3 24 -3q44 0 131 6t131 6q43 0 43 -22zM352 197q0 19 -29 19q-20 0 -27.5 -3.5t-21.5 -18.5q-8 -8 -8 -14q0 -18 37 -18q49 0 49 35z" />
    <glyph glyph-name="dollar" unicode="$" horiz-adv-x="711" 
d="M688 433q0 -28 -52 -55q-46 -24 -78 -24q-45 0 -45 24q0 11 28 24.5t28 24.5q0 14 -35 14q-25 0 -43 -32q-9 -17 -90 -234q0 -10 26.5 -13.5t55 -31t28.5 -55.5q0 -30 -60 -80q-52 -43 -88 -57q-32 -9 -64 -19q-40 -14 -45 -38q-1 -1 -15 -53q-11 -38 -11 -48.5
t-13.5 -19t-24.5 -8.5q-16 0 -30 11t-14 26q0 11 14 37.5t14 38.5t-15 18q-9 3 -34.5 22t-29.5 19t-4 -9q0 -7 1.5 -22t1.5 -23q0 -37 -27 -37q-53 0 -53 73q0 29 17 65q24 53 27 62q29 95 81 208q10 23 13.5 70.5t10.5 68.5q9 28 35 51q12 11 52 38q25 17 49 65
q56 111 91 111q30 0 30 -24q0 -19 -30.5 -56t-30.5 -53t27 -16q85 0 103 58q9 41 18 81q16 59 42 59q37 0 37 -33q0 -23 -22.5 -81.5t-22.5 -56.5q0 -12 31 -17q36 -5 70 -22q46 -23 46 -51zM429 420q0 13 -14 13q-50 0 -96 -18q-24 -9 -44.5 -38t-20.5 -55q0 -23 18 -47
q17 -19 36 -39t29 -20q7 0 22 29q70 145 70 175zM407 62q0 10 -13.5 17.5t-25.5 7.5q-13 0 -24 -21.5t-11 -35.5q0 -9 9 -9q12 0 38.5 15.5t26.5 25.5zM292 124q0 24 -27 46q-39 32 -43 37q-13 19 -20 19q-6 0 -18 -29q-52 -124 -52 -132q0 -12 11 -20.5t21 -15.5
q4 -4 4 -30.5t34 -26.5q25 0 59 65q31 60 31 87z" />
    <glyph glyph-name="percent" unicode="%" horiz-adv-x="790" 
d="M749 88q0 -56 -77 -107q-70 -48 -129 -48q-33 0 -44.5 12t-11.5 44q0 31 74.5 106.5t104.5 75.5q17 0 50 -33t33 -50zM733 460q0 -48 -95 -147q-30 -32 -175 -167q-94 -87 -94 -108q0 -12 -11.5 -22.5t-24.5 -10.5q-15 0 -28.5 15t-13.5 30q0 34 56 87q77 71 155 143
q128 119 128 132q0 14 -10 14q-3 0 -104 -44q-106 -47 -130 -53q-34 -3 -68 -7q-45 -7 -52 -30q-14 -45 -54 -79t-85 -34q-43 0 -74 32.5t-31 76.5q0 29 41 67t70 38q18 0 31.5 8t25.5 8q18 0 53.5 -9t53.5 -9q62 0 192 55q35 18 70 35q46 23 73 23q28 0 59 -10
q42 -13 42 -34zM664 65q0 11 -10 11q-9 0 -34 -18.5t-25 -24.5q0 -4 10 -4q17 0 36 10q23 11 23 26zM182 286q0 12 -6 12q-3 0 -8 -2t-8 -2q-6 0 -15.5 9.5t-17.5 9.5q-12 0 -19 -12.5t-7 -24.5t11.5 -20t24.5 -8q16 0 30.5 11t14.5 27z" />
    <glyph glyph-name="ampersand" unicode="&#x26;" horiz-adv-x="433" 
d="M406 320q0 -28 -24 -41q-1 0 -46 -14q-25 -8 -25 -24q0 -3 1.5 -7t1.5 -6q0 -26 -47 -49q-7 -3 -87 -34q-47 -17 -47 -31q0 -8 23.5 -18t30.5 -17q9 -12 46 -33q29 -15 29 -31q0 -13 -10 -32q-16 -29 -16 -31q-11 -28 -22 -73q-19 -86 -19 -129q0 -7 2.5 -21t2.5 -21
q0 -18 -25 -38.5t-44 -20.5q-25 0 -25 36q0 128 33 221q15 44 15 47q0 28 -57 79.5t-57 71.5q0 30 48.5 63.5t48.5 36t-31.5 22t-31.5 41.5q0 17 23 39q21 19 40 24q27 6 53 12q28 12 28 41q0 38 14 139q4 33 7 66q10 45 37 45q19 0 33 -41q11 -32 11 -57q0 -20 -12.5 -71.5
t-12.5 -75.5q0 -22 28 -25.5t55 -6.5q28 -7 28 -36z" />
    <glyph glyph-name="quotesingle" unicode="'" horiz-adv-x="221" 
d="M175 498q0 -43 -32 -133q-36 -102 -69 -102q-12 0 -21.5 12t-9.5 24q0 9 5 21q15 34 31 93q19 67 19 94q0 15 10.5 26.5t25.5 11.5q41 0 41 -47z" />
    <glyph glyph-name="parenleft" unicode="(" horiz-adv-x="315" 
d="M312 462q0 -23 -40 -47q-70 -42 -111 -109q-44 -70 -44 -149q0 -132 79 -164q5 -2 36 -9q25 -5 25 -22q0 -25 -29 -25q-9 0 -28 -3.5t-29 -3.5q-48 0 -77 50q-54 93 -54 189q0 47 32 120q31 68 65 108q27 31 61 60q47 41 70 41q13 0 28.5 -11.5t15.5 -24.5z" />
    <glyph glyph-name="parenright" unicode=")" horiz-adv-x="302" 
d="M250 118q0 -21 -17 -52q-15 -23 -31 -47q-5 -8 -36 -33q-27 -22 -27 -28t2.5 -16.5t2.5 -15.5q0 -28 -45 -28q-24 0 -39.5 18.5t-15.5 43.5q0 14 31 41q48 42 58 53q31 35 31 68q0 53 -38 145.5t-76 128.5q-19 18 -19 43q0 30 31 30q17 0 54 -37q30 -31 45 -54
q25 -39 56 -127q33 -93 33 -133z" />
    <glyph glyph-name="asterisk" unicode="*" horiz-adv-x="569" 
d="M534 255q0 -14 -17 -26t-33 -13q-120 -12 -120 -24q0 -23 118 -66q24 -8 24 -28q0 -33 -49 -33q-17 0 -68 16t-65 26q-24 16 -32 16t-8 -12q0 -9 3 -27.5t3 -27.5q0 -38 -31 -38t-40 32q-4 15 -4 59q0 9 2 27.5t2 28.5q0 18 -18 18q-20 0 -65 -7.5t-67 -7.5q-17 0 -29 9
q-15 9 -15 25q0 35 88 35q41 0 41 14q0 10 -41.5 54.5t-41.5 70.5q0 28 41 28q27 0 64 -49.5t47 -49.5q14 0 14 89v10.5v10.5q0 46 30 46q52 0 52 -43q0 -19 -6.5 -59t-6.5 -60q0 -38 26 -38q27 0 83 9t83 9q12 0 24 -6.5t12 -17.5z" />
    <glyph glyph-name="plus" unicode="+" horiz-adv-x="508" 
d="M490 184q0 -10 -10 -20.5t-20 -10.5q-9 0 -34 22q-17 14 -76 14q-25 0 -31 -2q-16 -5 -16 -24q0 -22 5.5 -66t5.5 -66q0 -23 -19.5 -37.5t-43.5 -14.5q-28 0 -28 54q0 16 3.5 47t3.5 47q0 36 -20 36q-19 0 -55 -8t-55 -8q-20 0 -46 10q-31 13 -31 30q0 35 57 35
q8 0 23 -1t20 -1q111 0 111 51q0 11 -5.5 37t-5.5 40q0 69 36 69q48 0 48 -44q0 -12 -3 -37.5t-3 -38.5q0 -40 32 -40q9 0 27.5 1.5t27.5 1.5q37 0 58 -18q44 -36 44 -58z" />
    <glyph glyph-name="comma" unicode="," horiz-adv-x="256" 
d="M195 -56q0 -125 -88 -185q-33 -23 -65 -23q-35 0 -35 30q0 20 20 32q18 9 37 17q32 16 44 31q18 24 18 70q0 54 -16 80q-6 9 -30 27q-16 12 -16 34q0 30 30 30q46 0 76 -51q25 -43 25 -92z" />
    <glyph glyph-name="hyphen" unicode="-" horiz-adv-x="339" 
d="M318 209q0 -19 -12 -25q-7 -2 -32 -2q-28 0 -85 -11t-86 -11q-63 0 -63 32q0 18 19.5 35.5t38.5 17.5q27 0 82 5t82 5q19 0 37.5 -13.5t18.5 -32.5z" />
    <glyph glyph-name="period" unicode="." horiz-adv-x="228" 
d="M160 13q0 -12 -16.5 -28t-28.5 -16q-21 0 -32.5 17t-11.5 37q0 19 9 38q11 23 27 22q53 -5 53 -70z" />
    <glyph glyph-name="slash" unicode="/" horiz-adv-x="462" 
d="M403 476q0 -13 -22 -46q-38 -64 -113 -192q-23 -38 -88 -137q-15 -23 -47 -69q-23 -29 -45 -29q-13 0 -23.5 12t-10.5 26q0 13 12 31q47 65 139 196q107 161 124 214q3 8 8 14q9 12 32 12q12 0 23 -10t11 -22z" />
    <glyph glyph-name="zero" unicode="0" horiz-adv-x="418" 
d="M373 256q0 -99 -52 -166q-58 -74 -154 -74q-56 0 -86 37q-27 33 -27 90q0 72 75 154t143 82q40 0 72 -42q29 -40 29 -81zM302 254q0 46 -22 46q-48 0 -99.5 -45t-51.5 -92q0 -39 9 -52q13 -18 51 -18q51 0 84 57q29 49 29 104z" />
    <glyph glyph-name="one" unicode="1" horiz-adv-x="232" 
d="M177 59q0 -26 -15 -64q-17 -45 -38 -45q-33 0 -33 66q0 12 1.5 31.5t1.5 23.5q0 50 -10 154q-12 119 -23.5 143t-11.5 47q0 41 27 41q26 0 38 -21q7 -11 15 -44q14 -58 31 -166q17 -117 17 -166z" />
    <glyph glyph-name="two" unicode="2" horiz-adv-x="521" 
d="M507 29q0 -10 -18.5 -19t-30.5 -9q-10 0 -27 6t-24 7q-11 1 -55 11q-34 7 -56 7q-17 0 -50 -7t-49 -7q-26 0 -50 11q-30 14 -30 37q0 20 65.5 95.5t65.5 118.5q0 13 -12 15q-2 1 -24 1q-86 0 -136 -26q-18 -9 -29 -9q-25 0 -25 31q0 34 58 47q104 24 178 24
q26 0 46 -18.5t20 -44.5q0 -41 -25 -92q-17 -34 -46 -74q-24 -34 -24 -37.5t71 -3.5q157 0 188 -35q19 -22 19 -29z" />
    <glyph glyph-name="three" unicode="3" horiz-adv-x="487" 
d="M451 137q0 -49 -66.5 -104t-114.5 -55q-26 0 -50 16q-27 17 -27 42q0 22 45 26q76 8 84 10q45 14 45 57q0 30 -143 30q-18 0 -47 26q-20 17 -20 30q0 11 54 48t54 56q0 9 -17 9q-88 0 -166 -30q-14 -5 -23 -5q-27 0 -27 35q0 32 101 51q69 12 125 12q91 0 91 -50
q0 -28 -26.5 -64t-26.5 -35q0 -7 30 -12q125 -18 125 -93z" />
    <glyph glyph-name="four" unicode="4" horiz-adv-x="448" 
d="M423 248q0 -26 -58 -41q-36 -10 -37 -11q-6 -6 -6 -47q0 -21 -2 -62t-2 -61q0 -11 -16 -28.5t-26 -17.5q-18 0 -33 23q-15 20 -15 39q0 14 4 43.5t4 44.5q0 47 -20 47t-62 -4t-63 -4q-27 0 -47 12q-24 14 -24 39q0 27 43 63q32 25 64 51q24 25 48 51q36 36 53 36
q27 0 50 -41q16 -31 24 -64q9 -44 34 -44q6 0 18 1t17 1q52 0 52 -26zM232 266q0 46 -24 46q-9 0 -40.5 -29t-31.5 -35q0 -12 47 -12q49 0 49 30z" />
    <glyph glyph-name="five" unicode="5" horiz-adv-x="510" 
d="M515 322q0 -23 -61 -30q-98 -12 -224 -12q-29 0 -42 -13.5t-13 -15.5q0 -7 43 -7q154 0 154 -97q0 -74 -58.5 -122.5t-133.5 -48.5q-32 0 -67 22q-40 24 -40 54q0 11 9.5 23t20.5 12q13 0 39 -21.5t44 -21.5q32 0 70.5 29t38.5 61q0 44 -76 44q-7 0 -20 -1h-19
q-14 0 -38.5 -9t-38.5 -9q-20 0 -38 12t-18 32q0 9 29 49l36 52q47 77 64 77q7 0 25.5 -16t51.5 -16q37 0 111.5 -1t112.5 -1t38 -25z" />
    <glyph glyph-name="six" unicode="6" horiz-adv-x="407" 
d="M354 95q0 -40 -49 -72q-44 -29 -86 -29q-58 0 -109 39q-56 42 -56 98q0 47 93.5 169.5t128.5 122.5q14 0 29 -10.5t15 -23.5q0 -4 -69 -73t-69 -93q0 -9 25 -9q31 0 91 -39q31 -21 40 -32q16 -18 16 -48zM280 99q0 36 -111 36q-25 0 -25 -17t28 -36.5t47 -19.5q21 0 39 8
q22 10 22 29z" />
    <glyph glyph-name="seven" unicode="7" horiz-adv-x="404" 
d="M370 371q0 -31 -65 -246q-21 -70 -21 -75q0 -6 5 -16.5t5 -16.5q0 -17 -35 -17q-34 0 -46 13.5t-12 46.5q0 7 69 213q18 53 18 60q0 15 -15 15q-33 0 -100 -14t-101 -14q-46 0 -46 37q0 32 60 38q24 2 165 25q63 11 73 11q28 0 38 -18q8 -12 8 -42z" />
    <glyph glyph-name="eight" unicode="8" horiz-adv-x="411" 
d="M394 419q0 -3 -2 -8q-9 -31 -14 -78q-9 -100 -81 -111q-43 -6 -43 -19q0 -9 32.5 -41t32.5 -63q0 -19 -16 -44q-56 -87 -185 -87q-35 0 -61 18q-30 20 -30 54q0 20 27 58q22 32 42 51q68 61 68 80q0 3 -9.5 20t-9.5 35q0 32 29 59q61 58 76 69q45 33 94 33q50 0 50 -26z
M310 311q0 9 -11.5 14.5t-21.5 5.5q-46 0 -46 -33q0 -14 21 -14q14 0 34 7q24 9 24 20zM241 99q0 44 -49 44q-19 0 -50.5 -35.5t-31.5 -50.5q0 -13 36 -13q23 0 57 16q38 19 38 39z" />
    <glyph glyph-name="nine" unicode="9" horiz-adv-x="407" 
d="M349 356q0 -6 -3 -16q-28 -87 -28 -167q0 -110 26 -146q4 -7 4 -13q0 -23 -28 -23q-76 0 -76 172q0 15 3 44t3 40q0 15 -11 15q-6 0 -17 -7q-38 -28 -107 -28q-81 0 -81 75q0 49 53 86q47 33 98 33q54 0 71 -37q9 -19 17 -19q2 0 15 8.5t34 8.5q27 0 27 -26zM224 330
q0 11 -12 19.5t-23 8.5q-9 0 -20 -6q-14 -8 -18 -10q-13 -4 -25.5 -9t-12.5 -21q0 -18 16 -18q11 0 53 15.5t42 20.5z" />
    <glyph glyph-name="colon" unicode=":" horiz-adv-x="225" 
d="M129 362q0 -119 -40 -119t-40 94q0 65 42 65q38 0 38 -40zM192 49q0 -17 -12 -30t-29 -13q-54 0 -54 71q0 63 44 63q13 0 22.5 -14.5t9.5 -28.5q0 -8 9.5 -21t9.5 -27z" />
    <glyph glyph-name="semicolon" unicode=";" horiz-adv-x="219" 
d="M179 365q0 -18 -17 -61q-18 -48 -32 -48q-34 0 -34 72q0 35 4 46q8 21 38 21q41 0 41 -30zM160 25q0 -120 -80 -185q-23 -19 -39 -19q-24 0 -24 35q0 11 19 35q25 31 35 49q18 35 18 75q0 9 -4.5 24.5t-4.5 23.5q0 27 28 27q23 0 37.5 -21t14.5 -44z" />
    <glyph glyph-name="less" unicode="&#x3c;" horiz-adv-x="561" 
d="M537 448q0 -24 -40 -56q-82 -59 -240 -182q-26 -19 -52 -37q-43 -32 -43 -37q0 -4 21 -12q14 -5 28 -9q21 -11 64 -48q40 -34 64.5 -43.5t67.5 -18.5q51 -10 68 -15q28 -9 28 -38q0 -51 -30 -51q-13 0 -43.5 10.5t-48.5 10.5t-46 20l-44 32q-29 18 -59 37t-62 28
q-23 6 -57.5 25.5t-54.5 24.5q-30 8 -30 26v7q1 4 1 6q0 15 77 54q33 17 91 62q45 36 90 71q55 46 111 93q90 74 105 74q34 0 34 -34z" />
    <glyph glyph-name="equal" unicode="=" horiz-adv-x="551" 
d="M531 294q0 -32 -42 -32q-25 0 -75 1h-75q-166 0 -183 -9t-37 -9q-48 0 -48 39q0 28 77 36q22 2 141 5q164 5 208 5q14 0 24 -11t10 -25zM460 111q0 -28 -45 -28q-16 0 -48.5 5.5t-49.5 5.5q-32 0 -101.5 -12t-97.5 -12q-24 0 -51 9q-34 13 -34 32q0 34 81 34q92 0 164 14
q6 1 42 10q27 8 40 8q27 0 61 -19q39 -22 39 -47z" />
    <glyph glyph-name="greater" unicode="&#x3e;" horiz-adv-x="621" 
d="M594 258q0 -19 -43 -49q-31 -18 -61 -36q-110 -70 -235 -171q-44 -38 -89 -76q-73 -59 -89 -59q-32 0 -32 46q0 10 187.5 152t187.5 163q0 9 -34 14q-73 11 -127 34q-38 16 -100 56q-71 44 -100 59q-32 16 -32 48q0 9 12.5 20t21.5 11q11 0 44 -18q40 -23 47 -25
q43 -16 98 -50q60 -37 87 -48q52 -22 113 -25l84 -4q60 -9 60 -42z" />
    <glyph glyph-name="question" unicode="?" horiz-adv-x="400" 
d="M379 495q0 -61 -49 -123q-20 -24 -93 -92q-50 -46 -50 -70q0 -41 -43 -41q-15 0 -24 20q-8 16 -8 33q0 34 94 124t94 126q0 43 -43 43q-42 0 -86.5 -22.5t-68.5 -56.5q-29 -42 -51 -42q-26 0 -26 44q0 30 21 50q10 10 48 33q57 35 79 45q47 22 88 22q46 0 80 -22
q38 -26 38 -71zM181 28q0 -18 -13 -30t-32 -12t-29.5 15.5t-10.5 34.5q0 11 12.5 26.5t23.5 15.5q49 0 49 -50z" />
    <glyph glyph-name="at" unicode="@" horiz-adv-x="774" 
d="M743 396q0 -19 -15 -54q-18 -43 -20 -55q-34 -139 -135 -139q-9 0 -22 -5q-89 -34 -144 -34q-37 0 -71 18q-42 21 -42 53q0 39 36.5 74.5t76.5 40.5q12 2 36 7q3 1 24 10q15 7 23 7q20 0 41 -18.5t22 -38.5v-7v-6q0 -21 17 -21q29 0 51 27q20 23 25 54q2 8 10 35
q7 22 7 35q0 40 -79 60q-55 15 -112 15q-46 0 -97 -15q-55 -15 -87 -41q-153 -121 -153 -241q0 -73 81 -143q44 -38 141 -38q26 0 77.5 4t76.5 4q50 0 50 -31t-82 -44q-49 -8 -106 -8q-163 0 -226 73q-50 59 -64 85q-23 44 -23 104q0 48 28 107q24 53 61 95q27 30 82 74
q61 49 90 58q94 30 163 30q86 0 158 -25q101 -36 101 -106z" />
    <glyph glyph-name="A" unicode="A" horiz-adv-x="461" 
d="M475 137q0 -25 -90 -25q-31 0 -31 -25q0 -16 17 -43.5t17 -47.5q0 -15 -13.5 -29.5t-28.5 -14.5q-13 0 -22 28q-7 22 -7 38q0 13 -15 47t-15 41t-35 10q-21 0 -42 1q-7 0 -30 3q-18 1 -29 1q-40 0 -45 -22l-27 -87q-7 -20 -42 -20q-23 0 -23 29q0 23 53 113q56 95 63 132
q2 13 17 62q11 37 11 63q0 61 16 61q10 0 30 -13q85 -59 105 -149q7 -34 14 -67q14 -55 25 -60q4 -2 71 -6q56 -4 56 -20zM278 199q0 25 -23 82q-26 62 -44 62q-6 0 -10 -30q-3 -18 -5 -37q-3 -9 -22 -43q-16 -30 -16 -43q0 -23 89 -23q31 0 31 32z" />
    <glyph glyph-name="B" unicode="B" horiz-adv-x="459" 
d="M424 82q0 -16 -14 -34q-50 -65 -194 -65q-90 0 -131 26q-26 16 -26 53q0 7 8 23t8 29v33q1 22 1 34q0 49 -7 62q-2 3 -22 24q-12 12 -12 31q0 66 90 103q69 28 146 28q43 0 82 -6q63 -11 63 -35q0 -44 -33 -88q-20 -25 -63 -61q-33 -29 -33 -36t24 -18q29 -14 32 -16
q44 -35 49 -39q32 -29 32 -48zM355 74q0 14 -32 42q-12 10 -106 32q-79 18 -79 51q0 14 28 24l40 12q36 14 82 48q57 42 57 69q0 20 -54 20q-66 0 -127 -20q-31 -10 -34 -20l-10 -28q-6 -9 -6 -24q0 -17 12 -75q4 -20 4.5 -60.5t3.5 -60.5q8 -40 70 -40q151 0 151 30z" />
    <glyph glyph-name="C" unicode="C" horiz-adv-x="479" 
d="M465 50q0 3 -6 -21q-4 -16 -33 -19q-5 -1 -42 -1q-242 0 -290 38q-52 41 -52 117q0 110 114 177q59 35 94 48q50 19 104 19q87 0 87 -39q0 -24 -45 -24q-9 0 -26 3.5t-26 3.5q-16 0 -38 -7q-37 -13 -85 -36q-62 -29 -75 -48q-34 -46 -34 -103q0 -51 31 -67q20 -11 78 -11
l90 1q68 0 85 -1q69 -6 69 -30z" />
    <glyph glyph-name="D" unicode="D" horiz-adv-x="462" 
d="M427 213q0 -54 -48 -98q-20 -18 -93 -65q-128 -81 -155 -81q-44 0 -44 38q0 7 17 36.5t17 56.5q0 25 -8 66q-10 48 -12 65q-1 9 -8 29.5t-7 28.5q0 2 1 5t1 4q0 3 -4 3q-12 0 -24.5 -18t-21.5 -18t-16.5 13t-7.5 22q0 20 44 56q12 10 13 31q1 17 12 17q36 0 92 -8
q60 -9 87 -20q165 -68 165 -163zM367 217q0 34 -27 50q-27 12 -54 23q-85 44 -109 44q-29 0 -29 -21q0 -10 11 -34q22 -52 22 -177q0 -24 21 -24q44 0 104.5 48.5t60.5 90.5z" />
    <glyph glyph-name="E" unicode="E" horiz-adv-x="493" 
d="M493 373q0 -26 -63 -32q-53 1 -159 -10q-11 -2 -57 -17q-36 -12 -56 -12q-16 0 -22 -22q-13 -53 -13 -83q0 -7 6 -7q3 0 11 3q32 10 97 13q21 2 62 16.5t62 14.5q13 0 27 -7.5t14 -19.5q0 -14 -21 -29.5t-36 -17.5q-36 -2 -108 -12q-57 -14 -71 -14q-10 0 -21 8t-17 8
q-16 0 -16 -22q0 -27 61 -42q43 -11 82 -11q90 0 104 19q15 24 25 24q14 0 27 -27q11 -23 11 -39q0 -28 -28 -35q-78 -20 -135 -20q-35 0 -94 20.5t-82 43.5q-34 33 -34 75q0 16 8 46.5t8 46.5q0 40 9 85q13 64 37 64q5 0 17.5 -9t29.5 -9q13 0 36 8l36 12q54 14 119 14h64
q41 0 47 -1q33 -4 33 -23z" />
    <glyph glyph-name="F" unicode="F" horiz-adv-x="539" 
d="M517 411q0 -27 -51 -34q-91 -5 -270 -22q-27 -3 -32.5 -9.5t-5.5 -33.5v-60q37 2 134 13q85 9 134 9q18 0 44 -9q31 -11 31 -26q0 -16 -77 -21q-37 -2 -171 -20q-30 -1 -83 -11q-12 -4 -12 -12q0 -26 7 -76.5t7 -75.5q0 -13 -11 -26t-23 -13q-41 0 -41 42q0 15 1 45t1 44
q0 65 -6 68q-52 22 -52 37q0 10 22 20l30 14q8 7 8 36q0 42 -23 42q-6 0 -13.5 -6.5t-13.5 -6.5q-16 0 -16 22q0 51 87 66q53 9 196 24q103 12 126 12q73 0 73 -32z" />
    <glyph glyph-name="G" unicode="G" horiz-adv-x="573" 
d="M558 190q0 -31 -185 -47q-21 -2 -21 -9q0 -9 5 -26t5 -26q0 -43 -52 -72q-45 -26 -91 -26q-79 0 -128 45.5t-49 123.5q0 118 140 204t185 86q39 0 73.5 -27.5t34.5 -64.5q0 -19 -15 -38t-33 -19q-26 0 -26 19q0 7 9.5 16t9.5 16q0 11 -16.5 20.5t-28.5 9.5q-10 0 -25 -6
q-85 -30 -121 -55q-127 -88 -127 -157q0 -41 36 -75t77 -34q73 0 73 45q0 24 -72 24q-34 0 -34 32q0 23 27 30q54 13 142 27q99 16 141 16q66 0 66 -32z" />
    <glyph glyph-name="H" unicode="H" horiz-adv-x="491" 
d="M441 66q0 -66 -35 -66q-26 0 -34 48q-24 150 -47 150q-4 0 -9 -5q-13 -16 -95 -16q-71 0 -79 -12q-2 -3 -2 -9q0 -13 8 -38.5t8 -38.5q0 -17 -9 -38q-10 -25 -25 -25q-29 0 -38 39q-2 11 -7 76q-3 44 -16 52q-26 14 -26 28q0 11 13 23t13 40q0 21 -2 62.5t-2 62.5
q0 10 8.5 19t18.5 9q31 0 39 -70q5 -47 9 -95q5 -18 10.5 -25t22.5 -7q16 0 48 4.5t49 4.5q37 0 58 -15l1 2q0 18 -16 68t-16 75q0 13 7.5 27.5t19.5 14.5q30 0 36 -31t50 -163q39 -118 39 -151z" />
    <glyph glyph-name="I" unicode="I" horiz-adv-x="198" 
d="M163 38q0 -13 -15 -24.5t-29 -11.5q-26 0 -42 44q-13 35 -13 65q0 38 -4 113.5t-4 112.5q0 72 35 72q21 0 26 -27q2 -9 2 -43q0 -176 18 -220q26 -61 26 -81z" />
    <glyph glyph-name="J" unicode="J" horiz-adv-x="377" 
d="M334 119q0 -57 -51 -98q-47 -39 -105 -39q-55 0 -92 40q-18 19 -53 85q-12 22 -12 32q0 15 20 24q44 19 50 19q14 0 30 -15.5t16 -28.5q0 -7 -9.5 -14.5t-9.5 -16.5q0 -20 24 -34.5t45 -14.5q29 0 53.5 20t24.5 47q0 65 -68 282q-6 19 -6 33q0 30 24 30q40 0 54 -51
q65 -240 65 -300z" />
    <glyph glyph-name="K" unicode="K" horiz-adv-x="545" 
d="M516 50q0 -32 -26 -32q-70 0 -189 34q-8 2 -67.5 23t-61.5 21q-7 0 -7 -7q0 -4 7 -21t7 -29q0 -29 -37 -29q-32 0 -40 25q-3 10 -3 52q0 74 -27 167q-4 13 -55 161q-3 10 -3 18q0 27 19 27q35 0 50 -45q4 -12 50 -141q7 -21 12 -21q4 0 15 13q62 73 119 109q31 20 61 40
q46 28 62 28q10 0 19.5 -10t9.5 -19q0 -8 -10 -18t-58.5 -39t-69.5 -49q-26 -24 -52 -49q-33 -34 -33 -58q0 -29 50 -53q36 -18 75 -25q111 -20 167 -42q16 -6 16 -31z" />
    <glyph glyph-name="L" unicode="L" horiz-adv-x="380" 
d="M372 82q0 -20 -12 -41t-30.5 -21t-54.5 -5t-55 -5q-104 0 -141 30.5t-37 96.5q0 13 2 28q8 65 26 194q4 28 29 28q32 0 32 -37q0 -33 -6 -102t-6 -100q0 -67 76 -67q89 0 133 14q15 5 24 5q20 0 20 -18z" />
    <glyph glyph-name="M" unicode="M" horiz-adv-x="527" 
d="M485 48q0 -30 -35 -30q-38 0 -52 14t-14 53q0 19 1 56t1 56q0 20 -8 20q3 0 -38.5 -22t-85.5 -22q-46 0 -81 25t-34 25q-4 0 -4 -63v-56q-1 -37 -1 -56q0 -54 -39 -54q-23 0 -29 25q-3 11 -3 43q0 50 -7 152t-7 153q0 16 8.5 31t23.5 15q22 0 54 -44q29 -41 58 -83
q36 -44 66 -44q31 0 70 26q34 23 55 52q16 21 32 21q10 0 23 -11.5t13 -21.5q0 -31 -2 -92.5t-2 -92.5q0 -36 18.5 -46.5t18.5 -28.5z" />
    <glyph glyph-name="N" unicode="N" horiz-adv-x="518" 
d="M475 243q0 -46 -8 -76q-18 -60 -45 -104q-39 -63 -84 -63q-32 0 -107 90.5t-93 90.5q-8 0 -8 -11t7 -46t7 -54q0 -68 -44 -68q-25 0 -28 32l-12 120q-7 71 -20 118q-5 19 -5 32q0 35 25 35q30 0 124 -91q74 -71 112 -119q18 -23 19 -24q13 -14 25 -16h3q31 0 54 73
q17 59 17 100q0 24 -16 62.5t-16 58.5t17 20q76 0 76 -160z" />
    <glyph glyph-name="O" unicode="O" horiz-adv-x="393" 
d="M336 202q0 -106 -39 -146q-35 -37 -59 -50q-30 -16 -74 -16q-53 0 -84 32t-31 85q0 87 73 165q71 75 115 75q27 0 59.5 -25t36 -50.5t3.5 -69.5zM273 210q0 52 -47 52q-38 0 -73 -56q-33 -52 -33 -93q0 -31 27 -40q12 -3 53 -3q33 0 55 56q18 45 18 84z" />
    <glyph glyph-name="P" unicode="P" horiz-adv-x="515" 
d="M486 348q0 -27 -40 -66q-33 -31 -65 -48q-78 -40 -152 -49q-27 -3 -31.5 -8.5t-4.5 -31.5q0 -22 3 -67t3 -68q0 -15 -12.5 -33t-27.5 -18q-27 0 -44 83q-6 31 -43 137q-30 84 -30 141q0 56 68 87q52 24 115 24q73 0 190 -36q71 -22 71 -47zM375 324q0 30 -160 30
q-94 0 -94 -36q0 -8 31 -42t36 -34q3 0 10.5 8t54.5 17q61 12 81 19q41 14 41 38z" />
    <glyph glyph-name="Q" unicode="Q" horiz-adv-x="656" 
d="M613 242q0 -51 -23 -96q-15 -29 -44 -63q-24 -27 -24 -33q0 -5 18 -48.5t18 -67.5q0 -28 -28 -28t-45 29q-3 4 -24 53q-12 28 -27 28q-5 0 -11 -6q-22 -22 -110 -34q-63 -8 -122 -8q-69 0 -103 18q-46 24 -46 88q0 61 44 129q38 58 95 103q67 52 116 76q65 31 134 31
q75 0 128.5 -48.5t53.5 -122.5zM550 236q0 28 -11 62q-14 43 -37 43q-17 0 -20 -14q-5 -22 -7 -25q-28 -36 -60 -36q-18 0 -41 29t-34 29q-4 0 -12 -4q-74 -35 -136 -93q-77 -73 -77 -136q0 -56 53 -56q81 0 187 27q16 3 16 8q0 4 -30.5 30t-30.5 39q0 26 28 26
q24 0 73 -30.5t53 -30.5q35 0 62 51q24 44 24 81z" />
    <glyph glyph-name="R" unicode="R" horiz-adv-x="478" 
d="M492 -55q0 -22 -31 -22q-25 0 -73 42q-31 27 -147 95q-32 19 -61 49q-36 37 -36 64q0 43 49 76q47 25 93 50q50 29 50 63q0 30 -21 30q-22 0 -72.5 -11.5t-67.5 -20.5q-32 -18 -41 -64q-14 -70 -14 -238q0 -85 -34 -85q-41 0 -41 36q0 18 3 50q4 36 5 50q1 31 1 71
q0 86 -8 128q-4 23 -4 35q0 26 11 31q5 3 31 3q8 0 24 16q35 37 81 49q34 9 97 9q112 0 112 -75q0 -63 -47 -106q-26 -24 -87 -54q-47 -23 -47 -37q0 -18 71 -60q112 -66 132 -81q72 -52 72 -93z" />
    <glyph glyph-name="S" unicode="S" horiz-adv-x="452" 
d="M424 128q0 -31 -26 -62q-22 -25 -53 -41q-26 -13 -73 -29q-52 -17 -74 -17q-25 0 -52.5 24.5t-27.5 48.5q0 13 11.5 21.5t24.5 8.5q9 0 33.5 -12t37.5 -12q22 0 73.5 24.5t51.5 41.5q0 22 -81 45q-131 36 -152 44q-82 34 -82 81q0 55 80 92q66 29 128 29q33 0 69 -24
q40 -26 40 -57q0 -21 -19 -45t-40 -24q-17 0 -17 15q0 7 3.5 19.5t3.5 19.5q0 33 -44 33q-29 0 -72 -15q-53 -18 -53 -41q0 -17 81 -40q117 -32 149 -46q80 -35 80 -82z" />
    <glyph glyph-name="T" unicode="T" horiz-adv-x="614" 
d="M592 391q0 -21 -51 -23q-17 -1 -113 -8q-69 -4 -113 -4q-26 0 -26 -15q0 -5 2 -13q64 -261 64 -341q0 -46 -26 -46q-48 0 -54 66q-21 232 -51 301q-13 29 -19 35q-9 9 -35 11q-75 5 -85 6q-64 10 -64 36q0 8 18.5 24.5t27.5 16.5q8 0 23 -5q19 -6 22 -6q35 -8 98 -8
q169 0 238 17q41 10 69 10q42 0 58.5 -21t16.5 -33z" />
    <glyph glyph-name="U" unicode="U" horiz-adv-x="496" 
d="M446 268q0 -52 -17 -116q-20 -74 -51 -104q-57 -58 -184 -58q-145 0 -145 213q0 172 50 172q35 0 35 -29q0 9 -8 -55q-6 -46 -6 -106q0 -129 84 -129q83 0 130 55q44 51 44 137q0 29 -13.5 60t-13.5 45q0 50 35 50q8 0 20 -12q40 -40 40 -123z" />
    <glyph glyph-name="V" unicode="V" horiz-adv-x="487" 
d="M472 345q0 -8 -17 -29q-12 -13 -24 -27q-32 -40 -72 -157q-54 -158 -99 -158q-16 0 -55 72l-50 94q-8 12 -76 94q-65 77 -65 79q0 28 26 28q20 0 62 -37q32 -29 53 -55q28 -39 57 -78q48 -64 56 -64q9 0 34 70q33 91 55 131q39 70 82 70q33 0 33 -33z" />
    <glyph glyph-name="W" unicode="W" horiz-adv-x="632" 
d="M575 293q0 -38 -9 -115q-11 -81 -21 -112q-13 -40 -56.5 -76.5t-84.5 -36.5q-31 0 -61 37q-24 29 -36 66q-5 21 -11 43q-9 34 -19 34q-4 0 -30 -31q-32 -39 -58 -59q-41 -31 -82 -31q-54 0 -54 75q0 45 -2 134.5t-2 133.5q0 34 24 34q17 0 28 -13t11 -31l1 -76
q0 -178 17 -178q25 0 88 66q11 12 37 72q20 45 44 45q28 0 56.5 -119t56.5 -119q89 0 89 264q0 17 12 33t28 16q34 0 34 -56z" />
    <glyph glyph-name="X" unicode="X" horiz-adv-x="471" 
d="M429 377q0 -24 -59.5 -93.5t-59.5 -80.5q0 -31 43.5 -81.5t43.5 -57.5q0 -13 -14.5 -26.5t-27.5 -13.5q-14 0 -35.5 15t-31 30.5t-18.5 32.5q-14 25 -22 25t-15.5 -11t-15.5 -20t-17 -18q-13 -12 -13 -19t15 -16t15 -18q0 -14 -18.5 -23.5t-33.5 -9.5q-62 0 -62 50
q0 43 50.5 92t50.5 65q0 15 -35 44q-28 24 -50 35q-33 15 -67 31q-52 26 -52 40q0 16 10 29t26 13q39 0 126 -60.5t94 -60.5q17 0 69 71.5t68 71.5q11 0 23.5 -12.5t12.5 -23.5z" />
    <glyph glyph-name="Y" unicode="Y" horiz-adv-x="509" 
d="M494 423q0 -26 -38 -71q-34 -40 -61 -56q-63 -27 -133 -60q-12 -12 -24 -56q-12 -40 -12 -61q0 -41 18 -53.5t18 -37.5q0 -13 -14.5 -21.5t-29.5 -8.5q-35 0 -51 40q-12 29 -12 69q0 15 7.5 44.5t7.5 44.5q0 18 -11 18q-53 0 -92 35.5t-39 87.5q0 110 56 110
q12 0 25.5 -8t13.5 -20q0 -8 -16 -29t-16 -29q0 -67 88 -67q60 0 138 36q92 42 92 95q0 39 40 39q12 0 28.5 -14.5t16.5 -26.5z" />
    <glyph glyph-name="Z" unicode="Z" horiz-adv-x="583" 
d="M569 58q0 -38 -60 -44q-11 -1 -125 -7q-63 -3 -188 -7h-32q-105 -1 -105 50q0 36 60 92q14 14 111 92q59 49 59 66q0 8 -14 8q-39 0 -93 -15q-46 -13 -91 -27q-11 -3 -20 -3q-36 0 -36 23q0 35 25.5 45.5t122 31t120.5 20.5q105 0 105 -34q0 -23 -41 -73q-33 -40 -62 -66
q-39 -30 -77 -61q-52 -42 -66 -68q48 -4 132 -4q49 0 72 3q13 1 72 9q44 6 71 6q60 0 60 -37z" />
    <glyph glyph-name="bracketleft" unicode="[" horiz-adv-x="398" 
d="M394 492q0 -36 -48 -48l-74 -20q-47 -12 -74.5 -14t-30.5 -3q-7 -5 -9 -31q-1 -9 -1 -25q0 -27 3.5 -81.5t3.5 -81.5q0 -26 -11 -77.5t-11 -77.5q0 -21 10 -27q7 -4 29 -4q17 0 59.5 -6.5t54.5 -11.5q23 -11 23 -38q0 -28 -43 -28q-124 0 -175 26q-29 15 -36 21
q-13 12 -13 38q0 13 3 34l20 98q12 57 12 99q0 48 -7 100q-9 64 -9 74q0 61 64 64q68 3 148 28q77 25 80 25q32 0 32 -33z" />
    <glyph glyph-name="backslash" unicode="\" horiz-adv-x="484" 
d="M473 20q0 -13 -15.5 -21.5t-30.5 -8.5q-18 0 -104 71l-106 92q-61 52 -176 184q-31 36 -31 60q0 23 33 23q28 0 68 -49q60 -76 110 -116.5t148 -118.5q25 -19 70 -58q34 -35 34 -58z" />
    <glyph glyph-name="bracketright" unicode="]" horiz-adv-x="421" 
d="M387 465q0 -10 -44.5 -98t-44.5 -151q0 -33 -1 -98.5t-1 -98.5q0 -10 1 -29.5t1 -29.5q0 -21 -19.5 -34.5t-40.5 -13.5q-4 0 -9.5 0.5t-88.5 4.5q-62 2 -80 10q-32 12 -32 41q0 15 13.5 24.5t28.5 9.5q17 0 52.5 -4t52.5 -4q45 0 45 99q0 16 -1.5 41.5t-1.5 31.5
q0 46 14 114.5t33 106.5q5 10 5 18q0 21 -31 21q-14 0 -43.5 2.5t-44.5 2.5q-14 0 -41 -3.5t-40 -3.5q-25 0 -25 36q0 42 36 42h256q51 0 51 -37z" />
    <glyph glyph-name="asciicircum" unicode="^" horiz-adv-x="434" 
d="M373 161q0 -47 -40 -47q-32 0 -48 30q-14 23 -14 58q0 24 2.5 72.5t2.5 72.5q0 20 -12 20q-9 0 -83 -72q-68 -65 -86 -87q-14 -17 -37 -17q-41 0 -41 42q0 20 28 40q90 63 207 181l36 40q25 25 45 25q36 0 36 -29q0 -27 -7 -85t-7 -88q0 -93 12 -123q6 -16 6 -33z" />
    <glyph glyph-name="underscore" unicode="_" horiz-adv-x="695" 
d="M690 -59q0 -50 -72 -50q-20 0 -59 6.5t-59 6.5q-16 0 -37 -3q-42 -6 -170 -10q-146 -4 -228 -4q-48 0 -48 30q0 16 19.5 31.5t36.5 15.5q25 0 75 -1h75q67 0 199.5 10.5t199.5 10.5q68 0 68 -43z" />
    <glyph glyph-name="grave" unicode="`" horiz-adv-x="315" 
d="M288 319q0 -23 -22.5 -50.5t-45.5 -27.5q-15 0 -18 24q-3 31 -9 38q-20 21 -65 58q-67 54 -70 57q-26 22 -26 52q0 33 40 33q27 0 111 -81q30 -24 61 -49q44 -37 44 -54z" />
    <glyph glyph-name="a" unicode="a" horiz-adv-x="450" 
d="M444 -6q0 -36 -52 -36q-55 0 -87 32q-16 22 -34 45q-1 0 -13 -9.5t-14 -10.5q-30 -18 -86 -18q-109 0 -109 98q0 32 18 76q21 51 45 61l64 28q37 15 67 15q50 0 70 -28q50 -11 50 -44q0 -17 -6.5 -51t-6.5 -52q0 -48 24 -63q5 -4 45 -13q25 -6 25 -30zM265 122
q0 18 -16 18q-4 0 -18.5 -8t-22.5 -8t-16.5 6.5t-8.5 14.5q0 9 25 24t25 26q0 7 -11 7q-31 0 -64.5 -34.5t-33.5 -64.5q0 -34 42 -34q26 0 59 14q40 17 40 39z" />
    <glyph glyph-name="b" unicode="b" horiz-adv-x="410" 
d="M367 184q0 -66 -45 -125q-49 -63 -113 -63q-18 0 -50 7.5t-49 7.5q-4 0 -13 -1t-14 -1q-18 0 -18 20q0 30 3 90.5t3 90.5q0 67 -5 83q-38 123 -38 131q0 10 9 21t19 11q18 0 39 -31q17 -26 22 -48q5 -30 10 -59q9 -37 36 -37q67 0 124 -18q80 -26 80 -79zM288 164
q0 42 -93 42q-56 0 -56 -43q0 -55 5 -67q11 -23 61 -23q83 0 83 91z" />
    <glyph glyph-name="c" unicode="c" horiz-adv-x="426" 
d="M421 32q0 -33 -45 -33q-7 0 -19.5 1t-17.5 1q-29 0 -87.5 -1.5t-88.5 -1.5q-121 0 -121 73q0 75 67.5 138t142.5 63q40 0 67 -17q33 -20 33 -57q0 -20 -14 -38.5t-34 -18.5q-36 0 -42 24.5t-30 24.5q-32 0 -73 -33q-44 -34 -44 -66q0 -23 58 -28q-3 0 73 0q175 0 175 -31
z" />
    <glyph glyph-name="d" unicode="d" horiz-adv-x="591" 
d="M563 36q0 -11 -30 -20q-24 -7 -40 -7q-53 0 -106 27.5t-50 27.5q-4 0 -74 -35.5t-111 -35.5q-34 0 -69 21q-38 25 -38 58q0 21 13 49q41 86 146 86q67 0 67 -38q0 -25 -36 -36l-68 -14q-37 -9 -37 -29q0 -24 32 -24q31 0 89.5 27.5t77.5 51.5q-20 44 -20 139q0 76 34 170
q43 118 105 118q48 0 75 -67q20 -51 20 -110q0 -73 -35 -144q-24 -49 -65 -98q-35 -41 -35 -51t46 -23q35 -9 61 -9q15 0 31.5 -10t16.5 -24zM489 387q0 26 -8 60q-11 46 -29 46q-15 0 -38 -63q-17 -48 -22 -76q-7 -39 -7 -75q0 -47 11 -88q34 30 63.5 91t29.5 105z" />
    <glyph glyph-name="e" unicode="e" horiz-adv-x="539" 
d="M532 53q0 -14 -21 -27q-16 -11 -33 -14q-138 -32 -206 -32q-50 0 -99 25q-52 26 -76 68q-73 0 -73 40q0 21 22 25q3 1 38 1q15 0 27 25q55 118 157 118q75 0 75 -64q0 -50 -41 -79q-24 -17 -77 -32q-41 -12 -41 -21q0 -20 48 -30q34 -8 63 -8q66 0 135 11q49 8 54 8
q48 0 48 -14zM274 195q0 16 -33 16q-17 0 -38 -19.5t-21 -34.5q0 -7 10 -7q16 0 49 16t33 29z" />
    <glyph glyph-name="f" unicode="f" horiz-adv-x="521" 
d="M526 197q0 -29 -62 -36q-121 -14 -212 -14q-38 0 -38 -16q0 -10 15 -54t15 -67q0 -30 -28 -30q-22 0 -45 56q-13 29 -36 87q-4 12 -9.5 14t-22.5 2q-83 0 -83 36q0 25 19 32q6 2 35 4q18 1 18 11q0 12 -4.5 42t-4.5 46q0 69 41 128q45 66 110 66q38 0 61 -42
q19 -35 19 -75q0 -106 -82 -147q-16 -8 -16 -14q0 -17 56 -17q27 0 78.5 8.5t78.5 8.5t56 -6q41 -8 41 -23zM252 379q0 54 -26 54q-37 0 -57 -51q-14 -37 -14 -82q0 -26 16 -26q23 0 53 42q28 39 28 63z" />
    <glyph glyph-name="g" unicode="g" horiz-adv-x="389" 
d="M343 197q0 -13 -9 -37t-9 -38q0 -29 5 -88t5 -89q0 -68 -24 -133q-30 -87 -85 -87q-43 0 -91 28q-43 24 -73 60q-17 20 -17 29q0 19 20 34.5t40 15.5q32 0 45 -40q5 -16 23 -32.5t33 -16.5q37 0 47 81q4 30 4 106q0 77 -29 76h-28q-145 -2 -145 80q0 54 61 85
q49 26 110 26q117 0 117 -60zM229 174q0 12 -18 12q-12 0 -43 -11q-34 -12 -34 -19q0 -18 42 -18q53 0 53 36z" />
    <glyph glyph-name="h" unicode="h" horiz-adv-x="392" 
d="M382 -28q0 -43 -48 -43q-30 0 -49 31q-7 11 -28 64q-15 40 -32 52q-29 19 -38 19q-12 0 -12 -57q0 -38 -39 -38q-35 0 -44 62q-8 73 -17 146q-16 102 -50 129q-11 9 -11 23q0 15 10 27t24 12q19 0 46 -37q23 -32 30 -54q5 -34 10 -69q9 -48 31 -48q31 0 72 -25
q37 -23 57 -51q26 -33 56 -103q3 -7 17.5 -19.5t14.5 -20.5z" />
    <glyph glyph-name="i" unicode="i" horiz-adv-x="192" 
d="M147 406q0 -18 -12 -52q-14 -40 -27 -40q-45 0 -45 52q0 67 39 67q45 0 45 -27zM145 179q0 -25 -5 -77q-5 -57 -11 -74q-8 -26 -33 -26q-18 0 -31 16.5t-13 35.5q0 4 8 55q6 35 6 76q0 33 38 33q41 0 41 -39z" />
    <glyph glyph-name="j" unicode="j" horiz-adv-x="310" 
d="M166 323q0 -42 -25 -42q-17 0 -33.5 17t-17.5 35.5t-2 37.5q-1 28 -9.5 35.5t-8.5 23.5q0 33 37 33q41 0 44 -32q1 -13 9 -54q6 -35 6 -54zM270 54q0 -54 -7 -78q-12 -40 -49 -56q-82 -36 -113 -36q-55 0 -79 49q-20 41 -20 54q0 32 40 32q35 0 43 -24t30 -24
q28 0 55.5 18.5t27.5 45.5q0 133 -35 176q-15 18 -15 38q0 30 29 30q24 0 55 -48q18 -27 29 -86q9 -49 9 -91z" />
    <glyph glyph-name="k" unicode="k" horiz-adv-x="518" 
d="M517 19q0 -22 -27 -22q-25 0 -96.5 17t-92.5 28t-57 36q-41 27 -52 40q-17 21 -21 21q-5 0 -7 -23q-5 -62 -8 -82q-12 -59 -39 -59q-37 0 -37 70q0 13 1.5 33.5t1.5 25.5q0 34 -20 105t-20 108q0 8 3 24t3 24q0 16 -12.5 47.5t-12.5 49.5q0 35 33 35q21 0 41 -19.5
t20 -40.5q0 -3 14 -149q10 -95 22 -95q3 0 37 34q38 36 43 40q101 74 117 103q9 16 22 16q12 0 25.5 -10.5t13.5 -22.5q0 -23 -57 -77q-42 -40 -80 -67q-33 -24 -33 -32q0 -25 92 -62q65 -25 116 -37q23 -5 43 -20q24 -19 24 -39z" />
    <glyph glyph-name="l" unicode="l" horiz-adv-x="193" 
d="M138 147v-66.5v-66.5q0 -31 -28 -31q-48 0 -48 77q0 28 3 82t3 81q0 25 -4 74t-4 73q0 55 28 55q14 0 28.5 -9t14.5 -22q0 -41 3.5 -123.5t3.5 -123.5z" />
    <glyph glyph-name="m" unicode="m" horiz-adv-x="723" 
d="M689 -32q0 -27 -43 -27q-56 0 -85 36q-17 21 -27 75q-9 46 -19 46t-54 -31.5t-73 -31.5t-46.5 31.5t-26.5 31.5q-18 0 -58 -51.5t-63 -51.5q-30 0 -30 55q0 29 -17 63q-19 41 -45 41q-18 0 -41 -24t-34 -24q-20 0 -20 26q0 32 34.5 65.5t66.5 33.5q35 0 61 -27
q14 -15 33 -49q14 -27 22 -27q3 0 43.5 32.5t59.5 32.5q27 0 46 -18q10 -10 23 -33q9 -18 14 -18q8 0 56.5 38.5t60.5 38.5q20 0 44 -25.5t31 -47.5q6 -31 11.5 -63t36.5 -52q39 -26 39 -45z" />
    <glyph glyph-name="n" unicode="n" horiz-adv-x="498" 
d="M456 -2q0 -14 -14.5 -26.5t-28.5 -12.5q-33 0 -49 38q-5 10 -19 70q-8 38 -24 38q-18 0 -52.5 -46.5t-56.5 -46.5q-20 0 -25 34t-9 66q-10 35 -43 35q-20 0 -56.5 -16t-46.5 -16q-32 0 -32 36q0 23 64 50q58 25 89 25q36 0 63.5 -34.5t35.5 -34.5q2 0 33 23t64 23
q46 0 78 -98q29 -93 29 -107z" />
    <glyph glyph-name="o" unicode="o" 
d="M332 167q0 -83 -44 -136q-46 -56 -129 -56q-48 0 -76.5 28t-28.5 75q0 63 47 119t110 56q8 0 17 -4t13 -4q5 0 15 3t16 3q60 0 60 -84zM209 144q0 18 -24 18q-19 0 -34 -25q-14 -21 -14 -41v-14q0 -30 34 -30q27 0 27 12q0 4 -2 10.5t-2 9.5q0 12 7.5 32.5t7.5 27.5z" />
    <glyph glyph-name="p" unicode="p" horiz-adv-x="399" 
d="M371 129q0 -54 -29 -100q-33 -53 -84 -53q-25 0 -51 8t-31 8q-10 0 -10 -43q0 -16 2 -48t2 -48q0 -20 -15 -39.5t-34 -19.5q-22 0 -32 33q-8 23 -8 52q0 43 -6 116q-6 84 -14 110q-5 18 -5 30q0 35 33 50q87 40 143 40q139 0 139 -96zM299 113q0 24 -10.5 31t-33.5 7
q-105 0 -105 -44q0 -57 80 -57q69 0 69 63z" />
    <glyph glyph-name="q" unicode="q" horiz-adv-x="448" 
d="M451 -88q0 -50 -46 -101.5t-95 -51.5q-93 0 -93 113q0 24 4 71.5t4 70.5q0 8 -5 8q-3 0 -17 -7q-27 -12 -76 -12q-79 0 -79 100q0 78 67 119q63 37 106 37q39 0 67 -21q30 -24 30 -62q0 -16 -7 -39t-7 -24q0 -2 4 -4q16 -13 35.5 -42.5t31.5 -41.5q76 -66 76 -113z
M240 166q0 30 -25 30q-24 0 -46 -11q-27 -14 -27 -35q0 -5 4 -11t4 -12q0 -14 -15 -27.5t-15 -18.5q0 -14 19 -14q15 0 68 32q33 20 33 67zM367 -98q0 19 -22.5 48.5t-40.5 29.5q-3 0 -3 -22q0 -6 -6.5 -13.5t-6.5 -22.5q0 -86 31 -86q19 0 35 24q13 22 13 42z" />
    <glyph glyph-name="r" unicode="r" horiz-adv-x="293" 
d="M273 227q0 -5 -42 -30t-47 -32q-21 -29 -25 -61q-1 -5 -1 -66q0 -51 -41 -51q-39 0 -39 51q0 11 5 32.5t5 33.5q0 51 -26.5 75t-26.5 44q0 25 28 25q15 0 21 -5q8 -9 15 -19q4 -7 8.5 -16t10.5 -9q9 0 48.5 35t64.5 35q12 0 27 -14t15 -28z" />
    <glyph glyph-name="s" unicode="s" horiz-adv-x="363" 
d="M312 240q0 -32 -21 -52q-12 -11 -39 -22q-21 -9 -21 -16q0 -1 29.5 -22t29.5 -49q0 -37 -55 -80t-94 -43q-27 0 -58 20.5t-31 46.5q0 24 30 24q11 0 34 -7t35 -7q10 0 34 10.5t24 17.5q0 10 -35 19q-42 11 -45 13q-22 14 -40 38q-21 28 -21 51q0 34 59 68q54 31 92 31
q93 0 93 -41z" />
    <glyph glyph-name="t" unicode="t" horiz-adv-x="498" 
d="M482 200q0 -31 -49.5 -37.5t-97.5 -10.5q-52 -9 -52 -39q0 -26 17 -43t43 -17q14 0 38.5 9t37.5 9q39 0 39 -34q0 -18 -48 -39q-43 -18 -65 -18q-64 0 -99 36q-14 14 -27 64q-12 42 -27 42q-17 0 -70 -5q-57 -6 -64.5 -9t-11.5 -3q-12 0 -22 12.5t-10 25.5q0 26 54 31
q50 4 100 7q54 9 55 46q0 4 -1 11v11q0 21 6 40q9 26 26 26q15 0 30 -12.5t15 -27.5q0 -7 -8 -23.5t-8 -24.5q0 -19 39 -19q19 0 59 3t60 3q41 0 41 -14z" />
    <glyph glyph-name="u" unicode="u" horiz-adv-x="583" 
d="M585 26q0 -17 -69 -26q-47 -6 -92 -6q-35 0 -56 18q-11 9 -24 33q-10 18 -19 18q-8 0 -29 -18q-26 -24 -48 -34q-36 -19 -82 -19q-103 0 -103 76q0 117 -12 138q-5 10 -5 18q0 28 33 28q35 0 42 -49l6 -92q5 -49 35 -49q58 0 97.5 35t39.5 93q0 6 -2 18t-2 18q0 24 24 24
q22 0 35 -40l26 -80q17 -45 44 -53q13 -3 66 -4q48 -1 59 -7q36 -22 36 -40z" />
    <glyph glyph-name="v" unicode="v" horiz-adv-x="356" 
d="M327 218q0 -35 -9 -86q-10 -54 -23 -82q-49 -105 -99 -105q-39 0 -68 39q-12 17 -37 74q-65 145 -65 164q0 14 10.5 23t24.5 9q26 0 69 -106t62 -106q24 0 45 58q18 49 18 79q0 10 -5.5 29.5t-5.5 30.5q0 47 39 47q22 0 34 -24q10 -20 10 -44z" />
    <glyph glyph-name="w" unicode="w" horiz-adv-x="578" 
d="M543 173q0 -30 -8 -69q-9 -45 -22 -65q-31 -45 -99 -45q-74 0 -97 26l-22 30q-15 21 -26 21q-4 0 -53 -28.5t-94 -28.5q-81 0 -81 165q0 63 30 63q44 0 44 -31q0 -11 -4.5 -35t-4.5 -36q0 -22 14.5 -37t37.5 -15q35 0 69 44t54 44t37.5 -26.5t34.5 -52.5q24 -28 57 -28
q22 0 39.5 19.5t17.5 41.5q0 8 -4 24.5t-4 25.5q0 32 38 32q25 0 35.5 -7t10.5 -32z" />
    <glyph glyph-name="x" unicode="x" horiz-adv-x="442" 
d="M418 11q0 -15 -9 -30t-23 -15q-5 0 -22 21q-21 25 -24 27q-21 18 -42 37q-33 29 -41 29q-15 0 -40.5 -52t-44.5 -52q-26 0 -26 44q0 26 21.5 57.5t21.5 48.5q0 18 -15 33q-58 55 -80 55q-7 0 -19.5 -6.5t-20.5 -6.5q-39 0 -39 51q0 16 15 20q0 1 29 4q8 1 23 9.5t22 8.5
q37 0 82 -42.5t53 -42.5q18 0 49 26.5t49 26.5q24 0 24 -14t-32 -44.5t-32 -46.5q0 -12 28 -33q20 -14 39 -29q54 -52 54 -84z" />
    <glyph glyph-name="y" unicode="y" horiz-adv-x="455" 
d="M398 -52q0 -66 -29 -97.5t-96 -31.5q-113 0 -113 49q0 33 47 40q8 1 71 1q49 0 49 41q0 23 -10 73q-12 59 -26 59q-9 0 -54.5 -31.5t-86.5 -31.5q-95 0 -95 153q0 99 44 99q37 0 37 -36q0 -12 -4 -37t-4 -38q0 -66 31 -66q16 0 45 18q60 39 83 95q10 26 14 31
q10 13 30 13q26 0 33 -28q2 -9 2 -48t16 -113.5t16 -113.5z" />
    <glyph glyph-name="z" unicode="z" horiz-adv-x="557" 
d="M546 29q0 -37 -52 -37q-14 0 -42 9t-45 9q-24 0 -69.5 -9t-69.5 -9q-47 0 -91 17q-58 23 -58 62q0 30 23 55q12 13 42 34q22 15 22 22q0 4 -7 4q-25 0 -71 -16t-68 -16q-15 0 -30.5 10t-15.5 24q0 16 57 37q41 15 70 21q65 5 133 12q14 12 28 12q45 0 45 -32
q0 -38 -45 -68q-19 -12 -50 -38q-38 -34 -38 -45q0 -18 70 -18q24 0 71.5 4t71.5 4q32 0 69 -10q50 -14 50 -38z" />
    <glyph glyph-name="braceleft" unicode="{" horiz-adv-x="390" 
d="M380 585q0 -39 -40 -39q-12 0 -36.5 8.5t-38.5 8.5q-36 0 -62.5 -32t-26.5 -69q0 -34 19 -79.5t19 -59.5q0 -7 -4.5 -20t-4.5 -19q0 -12 32 -39.5t32 -63.5q0 -37 -34.5 -96.5t-34.5 -102.5q0 -46 32 -70q1 -1 60 -30q33 -16 33 -43q0 -37 -44 -37q-80 0 -123.5 51
t-43.5 133q0 47 31.5 101t31.5 77q0 21 -21 24q4 0 -37 0q-92 0 -92 56q0 23 21 36.5t44 13.5q30 0 30 24q0 15 -14 62t-14 78q0 52 22 86q37 54 60 70q32 21 93 21q37 0 68 -9q43 -14 43 -41z" />
    <glyph glyph-name="bar" unicode="|" horiz-adv-x="200" 
d="M165 456q0 -9 -11 -32t-13 -37q-24 -185 -24 -232q0 -33 16 -74t16 -45q0 -24 -32 -24t-51.5 23t-19.5 55q0 63 15 228q3 46 16 134q15 52 52 52q15 0 25.5 -16t10.5 -32z" />
    <glyph glyph-name="braceright" unicode="}" horiz-adv-x="383" 
d="M353 529q0 -49 -44 -109q-42 -49 -84 -97q-44 -53 -44 -84q0 -33 34 -43q32 -5 65.5 -10t33.5 -28q0 -28 -17 -39q-6 -4 -30 -8q-16 -4 -16 -15t23.5 -64t23.5 -91q0 -37 -20 -71q-47 -81 -151 -81q-59 0 -73 3q-42 9 -42 47q0 31 27 31q14 0 41 -3.5t41 -3.5q89 0 89 85
q0 53 -39 93q-19 19 -26 55t-18 50q-28 36 -28 97q0 40 46 100q16 22 84 97q45 50 45 65q0 22 -25 35q-21 11 -45 11h-140q-15 0 -25.5 10t-10.5 24q0 47 71 47q25 0 75.5 -7t75.5 -7q46 0 73 -21q30 -24 30 -68z" />
    <glyph glyph-name="asciitilde" unicode="~" horiz-adv-x="623" 
d="M606 417q0 -24 -4 -33q-6 -12 -24 -18.5t-49.5 -32.5t-55.5 -32q-38 -11 -75 -23q-47 -14 -77 -14q-25 0 -45.5 16.5t-20.5 40.5q0 8 7 25t7 25q0 10 -8 10q-17 0 -97 -58.5t-105 -58.5q-38 0 -38 35q0 31 127 102q39 23 77 46q55 31 80 31q22 0 34 -22q11 -18 11 -41
q0 -10 -6 -28t-6 -28q0 -17 17 -17q38 0 91.5 25t72.5 55q16 26 18 28q12 14 28 14q19 0 30 -14t11 -33z" />
    <glyph glyph-name="Adieresis" unicode="&#xc4;" horiz-adv-x="461" 
d="M300 513q0 -18 -12 -31t-29 -13q-54 0 -54 71q0 64 44 64q13 0 22.5 -15t9.5 -29q0 -7 9.5 -20.5t9.5 -26.5zM142 574q0 -119 -40 -119t-40 93q0 65 42 65q38 0 38 -39zM475 137q0 -25 -90 -25q-31 0 -31 -25q0 -16 17 -43.5t17 -47.5q0 -15 -13.5 -29.5t-28.5 -14.5
q-13 0 -22 28q-7 22 -7 38q0 13 -15 47t-15 41t-35 10q-21 0 -42 1q-7 0 -30 3q-18 1 -29 1q-40 0 -45 -22l-27 -87q-7 -20 -42 -20q-23 0 -23 29q0 23 53 113q56 95 63 132q2 13 17 62q11 37 11 63q0 61 16 61q10 0 30 -13q85 -59 105 -149q7 -34 14 -67q14 -55 25 -60
q4 -2 71 -6q56 -4 56 -20zM278 199q0 25 -23 82q-26 62 -44 62q-6 0 -10 -30q-3 -18 -5 -37q-3 -9 -22 -43q-16 -30 -16 -43q0 -23 89 -23q31 0 31 32z" />
    <glyph glyph-name="Aring" unicode="&#xc5;" horiz-adv-x="461" 
d="M308 587q0 -44 -33 -75q-35 -34 -92 -34q-34 0 -63.5 19t-29.5 43q0 31 44 60.5t89 29.5q6 0 12.5 -2t8.5 -2q3 0 10.5 1.5t11.5 1.5q42 0 42 -42zM475 137q0 -25 -90 -25q-31 0 -31 -25q0 -16 17 -43.5t17 -47.5q0 -15 -13.5 -29.5t-28.5 -14.5q-13 0 -22 28
q-7 22 -7 38q0 13 -15 47t-15 41t-35 10q-21 0 -42 1q-7 0 -30 3q-18 1 -29 1q-40 0 -45 -22l-27 -87q-7 -20 -42 -20q-23 0 -23 29q0 23 53 113q56 95 63 132q2 13 17 62q11 37 11 63q0 61 16 61q10 0 30 -13q85 -59 105 -149q7 -34 14 -67q14 -55 25 -60q4 -2 71 -6
q56 -4 56 -20zM218 564q0 9 -17 9q-29 0 -29 -23l-1 -7q0 -16 24 -16q19 0 19 7q0 1 -1.5 4.5t-1.5 5.5q0 6 3.5 11t3.5 9zM278 199q0 25 -23 82q-26 62 -44 62q-6 0 -10 -30q-3 -18 -5 -37q-3 -9 -22 -43q-16 -30 -16 -43q0 -23 89 -23q31 0 31 32z" />
    <glyph glyph-name="Ccedilla" unicode="&#xc7;" horiz-adv-x="479" 
d="M465 50q0 3 -6 -21q-4 -16 -33 -19q-5 -1 -42 -1q-31 0 -69 2q13 -34 13 -67q0 -125 -88 -185q-33 -23 -65 -23q-36 0 -36 30q0 20 20 32q19 9 38 17q32 16 43 31q18 24 18 70q0 75 -38 101q-101 10 -126 30q-52 41 -52 117q0 110 114 177q59 35 94 48q50 19 104 19
q87 0 87 -39q0 -24 -45 -24q-9 0 -26 3.5t-26 3.5q-16 0 -38 -7q-37 -13 -85 -36q-62 -29 -75 -48q-34 -46 -34 -103q0 -48 27 -65q19 -12 68 -13q8 7 20 7q15 0 29 -6h55q68 0 85 -1q69 -6 69 -30z" />
    <glyph glyph-name="Eacute" unicode="&#xc9;" horiz-adv-x="493" 
d="M456 662q0 -12 -47 -56q-30 -29 -60 -57q-28 -39 -57 -78q-41 -55 -70 -55q-43 0 -43 34q0 33 111 129q27 23 49 45q19 21 39 42q30 28 47 28q31 0 31 -32zM493 373q0 -26 -63 -32q-53 1 -159 -10q-11 -2 -57 -17q-36 -12 -56 -12q-16 0 -22 -22q-13 -53 -13 -83
q0 -7 6 -7q3 0 11 3q32 10 97 13q21 2 62 16.5t62 14.5q13 0 27 -7.5t14 -19.5q0 -14 -21 -29.5t-36 -17.5q-36 -2 -108 -12q-57 -14 -71 -14q-10 0 -21 8t-17 8q-16 0 -16 -22q0 -27 61 -42q43 -11 82 -11q90 0 104 19q15 24 25 24q14 0 27 -27q11 -23 11 -39
q0 -28 -28 -35q-78 -20 -135 -20q-35 0 -94 20.5t-82 43.5q-34 33 -34 75q0 16 8 46.5t8 46.5q0 40 9 85q13 64 37 64q5 0 17.5 -9t29.5 -9q13 0 36 8l36 12q54 14 119 14h64q41 0 47 -1q33 -4 33 -23z" />
    <glyph glyph-name="Ntilde" unicode="&#xd1;" horiz-adv-x="518" 
d="M454 534q0 -26 -11 -34q-14 -8 -27.5 -17t-27 -19t-27.5 -14q-25 -8 -50 -15q-30 -10 -52 -10q-19 0 -35.5 13.5t-16.5 34.5l8 26q-10 -4 -51 -34q-55 -40 -74 -40q-35 0 -35 33q0 26 88 75q26 15 52 31q35 20 54 20q20 0 31 -19q9 -14 9 -32q0 -6 -4 -18t-4 -18v-1
q23 0 55.5 15t42.5 32q20 32 38 32q37 0 37 -41zM475 243q0 -46 -8 -76q-18 -60 -45 -104q-39 -63 -84 -63q-32 0 -107 90.5t-93 90.5q-8 0 -8 -11t7 -46t7 -54q0 -68 -44 -68q-25 0 -28 32l-12 120q-7 71 -20 118q-5 19 -5 32q0 35 25 35q30 0 124 -91q74 -71 112 -119
q18 -23 19 -24q13 -14 25 -16h3q31 0 54 73q17 59 17 100q0 24 -16 62.5t-16 58.5t17 20q76 0 76 -160z" />
    <glyph glyph-name="Odieresis" unicode="&#xd6;" horiz-adv-x="393" 
d="M348 453q0 -18 -12 -30.5t-30 -12.5q-53 0 -53 71q0 63 43 63q14 0 23 -14.5t9 -28.5q0 -8 10 -21.5t10 -26.5zM190 514q0 -119 -40 -119t-40 94q0 65 42 65q38 0 38 -40zM336 202q0 -106 -39 -146q-35 -37 -59 -50q-30 -16 -74 -16q-53 0 -84 32t-31 85q0 87 73 165
q71 75 115 75q27 0 59.5 -25t36 -50.5t3.5 -69.5zM273 210q0 52 -47 52q-38 0 -73 -56q-33 -52 -33 -93q0 -31 27 -40q12 -3 53 -3q33 0 55 56q18 45 18 84z" />
    <glyph glyph-name="Udieresis" unicode="&#xdc;" horiz-adv-x="496" 
d="M341 486q0 -18 -12 -31t-29 -13q-54 0 -54 71q0 64 44 64q13 0 22 -15t9 -29q0 -8 10 -21t10 -26zM183 546q0 -119 -40 -119t-40 94q0 65 42 65q38 0 38 -40zM446 268q0 -52 -17 -116q-20 -74 -51 -104q-57 -58 -184 -58q-145 0 -145 213q0 172 50 172q35 0 35 -29
q0 9 -8 -55q-6 -46 -6 -106q0 -129 84 -129q83 0 130 55q44 51 44 137q0 29 -13.5 60t-13.5 45q0 50 35 50q8 0 20 -12q40 -40 40 -123z" />
    <glyph glyph-name="aacute" unicode="&#xe1;" horiz-adv-x="450" 
d="M383 577q0 -12 -46 -57q-31 -28 -61 -56q-28 -40 -56 -79q-41 -54 -71 -54q-43 0 -43 34q0 32 111 129q27 23 48 44.5t40 41.5q30 29 47 29q31 0 31 -32zM444 -6q0 -36 -52 -36q-55 0 -87 32q-16 22 -34 45q-1 0 -13 -9.5t-14 -10.5q-30 -18 -86 -18q-109 0 -109 98
q0 32 18 76q21 51 45 61l64 28q37 15 67 15q50 0 70 -28q50 -11 50 -44q0 -17 -6.5 -51t-6.5 -52q0 -48 24 -63q5 -4 45 -13q25 -6 25 -30zM265 122q0 18 -16 18q-4 0 -18.5 -8t-22.5 -8t-16.5 6.5t-8.5 14.5q0 9 25 24t25 26q0 7 -11 7q-31 0 -64.5 -34.5t-33.5 -64.5
q0 -34 42 -34q26 0 59 14q40 17 40 39z" />
    <glyph glyph-name="agrave" unicode="&#xe0;" horiz-adv-x="450" 
d="M377 388q0 -23 -22.5 -50t-45.5 -27q-16 0 -18 24q-3 30 -9 37q-20 21 -66 58q-66 54 -69 57q-26 23 -26 52q0 34 40 34q27 0 111 -82q30 -24 60 -49q45 -37 45 -54zM444 -6q0 -36 -52 -36q-55 0 -87 32q-16 22 -34 45q-1 0 -13 -9.5t-14 -10.5q-30 -18 -86 -18
q-109 0 -109 98q0 32 18 76q21 51 45 61l64 28q37 15 67 15q50 0 70 -28q50 -11 50 -44q0 -17 -6.5 -51t-6.5 -52q0 -48 24 -63q5 -4 45 -13q25 -6 25 -30zM265 122q0 18 -16 18q-4 0 -18.5 -8t-22.5 -8t-16.5 6.5t-8.5 14.5q0 9 25 24t25 26q0 7 -11 7q-31 0 -64.5 -34.5
t-33.5 -64.5q0 -34 42 -34q26 0 59 14q40 17 40 39z" />
    <glyph glyph-name="acircumflex" unicode="&#xe2;" horiz-adv-x="450" 
d="M377 347q0 -36 -40 -36q-56 0 -56 58q0 13 2 39.5t2 38.5q1 2 -2.5 2t-56.5 -38q-46 -34 -60 -46t-34 -12q-41 0 -41 33q0 17 26 30q67 34 154 98l30 24q19 13 36 13q38 0 38 -26q0 -15 -5.5 -46.5t-5.5 -47.5q0 -48 7 -62q6 -10 6 -22zM444 -6q0 -36 -52 -36
q-55 0 -87 32q-16 22 -34 45q-1 0 -13 -9.5t-14 -10.5q-30 -18 -86 -18q-109 0 -109 98q0 32 18 76q21 51 45 61l64 28q37 15 67 15q50 0 70 -28q50 -11 50 -44q0 -17 -6.5 -51t-6.5 -52q0 -48 24 -63q5 -4 45 -13q25 -6 25 -30zM265 122q0 18 -16 18q-4 0 -18.5 -8
t-22.5 -8t-16.5 6.5t-8.5 14.5q0 9 25 24t25 26q0 7 -11 7q-31 0 -64.5 -34.5t-33.5 -64.5q0 -34 42 -34q26 0 59 14q40 17 40 39z" />
    <glyph glyph-name="adieresis" unicode="&#xe4;" horiz-adv-x="450" 
d="M360 393q0 -18 -12 -31t-29 -13q-54 0 -54 72q0 63 44 63q13 0 22.5 -15t9.5 -29q0 -7 9.5 -20.5t9.5 -26.5zM202 454q0 -119 -39 -119q-41 0 -41 93q0 65 43 65q37 0 37 -39zM444 -6q0 -36 -52 -36q-55 0 -87 32q-16 22 -34 45q-1 0 -13 -9.5t-14 -10.5q-30 -18 -86 -18
q-109 0 -109 98q0 32 18 76q21 51 45 61l64 28q37 15 67 15q50 0 70 -28q50 -11 50 -44q0 -17 -6.5 -51t-6.5 -52q0 -48 24 -63q5 -4 45 -13q25 -6 25 -30zM265 122q0 18 -16 18q-4 0 -18.5 -8t-22.5 -8t-16.5 6.5t-8.5 14.5q0 9 25 24t25 26q0 7 -11 7q-31 0 -64.5 -34.5
t-33.5 -64.5q0 -34 42 -34q26 0 59 14q40 17 40 39z" />
    <glyph glyph-name="atilde" unicode="&#xe3;" horiz-adv-x="450" 
d="M459 446q0 -25 -11 -34q-15 -8 -28.5 -17t-25.5 -19q-15 -10 -29 -14q-25 -8 -50 -15q-30 -10 -51 -10q-20 0 -35 13q-18 14 -18 35l8 27q-9 -5 -51 -35q-55 -40 -74 -40q-34 0 -34 34q0 25 87 74q26 16 52 31q36 20 54 20q21 0 32 -19q8 -14 8 -32q0 -6 -4 -18t-4 -18
l1 -1q22 0 54.5 15.5t43.5 32.5q20 31 38 31q37 0 37 -41zM444 -6q0 -36 -52 -36q-55 0 -87 32q-16 22 -34 45q-1 0 -13 -9.5t-14 -10.5q-30 -18 -86 -18q-109 0 -109 98q0 32 18 76q21 51 45 61l64 28q37 15 67 15q50 0 70 -28q50 -11 50 -44q0 -17 -6.5 -51t-6.5 -52
q0 -48 24 -63q5 -4 45 -13q25 -6 25 -30zM265 122q0 18 -16 18q-4 0 -18.5 -8t-22.5 -8t-16.5 6.5t-8.5 14.5q0 9 25 24t25 26q0 7 -11 7q-31 0 -64.5 -34.5t-33.5 -64.5q0 -34 42 -34q26 0 59 14q40 17 40 39z" />
    <glyph glyph-name="aring" unicode="&#xe5;" horiz-adv-x="450" 
d="M326 442q0 -44 -32 -75q-35 -34 -92 -34q-35 0 -64 19t-29 43q0 31 43.5 61t89.5 30q5 0 11.5 -2t8.5 -2q4 0 11.5 1.5t11.5 1.5q41 0 41 -43zM444 -6q0 -36 -52 -36q-55 0 -87 32q-16 22 -34 45q-1 0 -13 -9.5t-14 -10.5q-30 -18 -86 -18q-109 0 -109 98q0 32 18 76
q21 51 45 61l64 28q37 15 67 15q50 0 70 -28q50 -11 50 -44q0 -17 -6.5 -51t-6.5 -52q0 -48 24 -63q5 -4 45 -13q25 -6 25 -30zM237 419q0 9 -17 9q-30 0 -30 -23v-7q0 -15 24 -15q19 0 19 6q0 2 -1.5 5t-1.5 5q0 6 3.5 11.5t3.5 8.5zM265 122q0 18 -16 18q-4 0 -18.5 -8
t-22.5 -8t-16.5 6.5t-8.5 14.5q0 9 25 24t25 26q0 7 -11 7q-31 0 -64.5 -34.5t-33.5 -64.5q0 -34 42 -34q26 0 59 14q40 17 40 39z" />
    <glyph glyph-name="ccedilla" unicode="&#xe7;" horiz-adv-x="426" 
d="M421 32q0 -33 -45 -33q-7 0 -19.5 1t-17.5 1q-29 0 -87.5 -1.5t-88.5 -1.5q-121 0 -121 73q0 75 67.5 138t142.5 63q40 0 67 -17q33 -20 33 -57q0 -20 -14 -38.5t-34 -18.5q-36 0 -42 24.5t-30 24.5q-32 0 -73 -33q-44 -34 -44 -66q0 -23 58 -28q-3 0 73 0q175 0 175 -31
z" />
    <glyph glyph-name="eacute" unicode="&#xe9;" horiz-adv-x="539" 
d="M400 550q0 -12 -47 -56q-30 -29 -60 -57q-28 -39 -56 -79q-41 -54 -71 -54q-43 0 -43 34q0 33 111 129q27 23 49 45q19 21 39 42q30 28 47 28q31 0 31 -32zM532 53q0 -14 -21 -27q-16 -11 -33 -14q-138 -32 -206 -32q-50 0 -99 25q-52 26 -76 68q-73 0 -73 40q0 21 22 25
q3 1 38 1q15 0 27 25q55 118 157 118q75 0 75 -64q0 -50 -41 -79q-24 -17 -77 -32q-41 -12 -41 -21q0 -20 48 -30q34 -8 63 -8q66 0 135 11q49 8 54 8q48 0 48 -14zM274 195q0 16 -33 16q-17 0 -38 -19.5t-21 -34.5q0 -7 10 -7q16 0 49 16t33 29z" />
    <glyph glyph-name="egrave" unicode="&#xe8;" horiz-adv-x="539" 
d="M379 410q0 -23 -22.5 -50.5t-45.5 -27.5q-16 0 -18 24q-3 31 -9 38q-20 21 -66 58q-66 54 -69 57q-26 22 -26 51q0 34 39 34q28 0 112 -81q30 -25 60 -49q45 -37 45 -54zM532 53q0 -14 -21 -27q-16 -11 -33 -14q-138 -32 -206 -32q-50 0 -99 25q-52 26 -76 68
q-73 0 -73 40q0 21 22 25q3 1 38 1q15 0 27 25q55 118 157 118q75 0 75 -64q0 -50 -41 -79q-24 -17 -77 -32q-41 -12 -41 -21q0 -20 48 -30q34 -8 63 -8q66 0 135 11q49 8 54 8q48 0 48 -14zM274 195q0 16 -33 16q-17 0 -38 -19.5t-21 -34.5q0 -7 10 -7q16 0 49 16t33 29z
" />
    <glyph glyph-name="ecircumflex" unicode="&#xea;" horiz-adv-x="539" 
d="M409 335q0 -36 -40 -36q-56 0 -56 58q0 13 1.5 39.5t1.5 38.5q1 2 -2.5 2t-55.5 -39q-47 -33 -61 -45t-34 -12q-41 0 -41 32q0 18 27 31q66 34 153 98l30 24q19 13 37 13q37 0 37 -26q0 -15 -5.5 -46.5t-5.5 -47.5q0 -48 7 -60.5t7 -23.5zM532 53q0 -14 -21 -27
q-16 -11 -33 -14q-138 -32 -206 -32q-50 0 -99 25q-52 26 -76 68q-73 0 -73 40q0 21 22 25q3 1 38 1q15 0 27 25q55 118 157 118q75 0 75 -64q0 -50 -41 -79q-24 -17 -77 -32q-41 -12 -41 -21q0 -20 48 -30q34 -8 63 -8q66 0 135 11q49 8 54 8q48 0 48 -14zM274 195
q0 16 -33 16q-17 0 -38 -19.5t-21 -34.5q0 -7 10 -7q16 0 49 16t33 29z" />
    <glyph glyph-name="edieresis" unicode="&#xeb;" horiz-adv-x="539" 
d="M372 399q0 -17 -12 -30t-30 -13q-53 0 -53 71q0 64 44 64q13 0 22 -15t9 -29q0 -8 10 -21t10 -27zM214 460q0 -119 -40 -119t-40 94q0 65 42 65q38 0 38 -40zM532 53q0 -14 -21 -27q-16 -11 -33 -14q-138 -32 -206 -32q-50 0 -99 25q-52 26 -76 68q-73 0 -73 40
q0 21 22 25q3 1 38 1q15 0 27 25q55 118 157 118q75 0 75 -64q0 -50 -41 -79q-24 -17 -77 -32q-41 -12 -41 -21q0 -20 48 -30q34 -8 63 -8q66 0 135 11q49 8 54 8q48 0 48 -14zM274 195q0 16 -33 16q-17 0 -38 -19.5t-21 -34.5q0 -7 10 -7q16 0 49 16t33 29z" />
    <glyph glyph-name="iacute" unicode="&#xed;" horiz-adv-x="192" 
d="M352 530q0 -12 -47 -57q-31 -28 -61 -56q-28 -40 -56 -79q-41 -54 -71 -54q-43 0 -43 34q0 32 111 129q27 23 48 44.5t40 41.5q30 29 47 29q32 0 32 -32zM145 179q0 -25 -5 -77q-5 -57 -11 -74q-8 -26 -33 -26q-18 0 -31 16.5t-13 35.5q0 4 8 55q6 35 6 76q0 33 38 33
q41 0 41 -39z" />
    <glyph glyph-name="igrave" unicode="&#xec;" horiz-adv-x="192" 
d="M170 349q0 -23 -22.5 -50t-45.5 -27q-16 0 -18 24q-3 30 -9 37q-20 21 -66 58q-66 54 -69 57q-26 23 -26 52q0 34 40 34q27 0 111 -82q30 -24 60 -49q45 -37 45 -54zM145 179q0 -25 -5 -77q-5 -57 -11 -74q-8 -26 -33 -26q-18 0 -31 16.5t-13 35.5q0 4 8 55q6 35 6 76
q0 33 38 33q41 0 41 -39z" />
    <glyph glyph-name="icircumflex" unicode="&#xee;" horiz-adv-x="192" 
d="M248 277q0 -35 -40 -35q-56 0 -56 57q0 13 2 39.5t2 39.5q0 2 1 1q-7 0 -60 -38q-46 -34 -60 -46t-35 -12q-41 0 -41 33q0 17 27 31q67 34 153 97q16 12 32.5 24.5t34.5 12.5q37 0 37 -26q0 -15 -5.5 -46t-5.5 -48q0 -48 8 -62q6 -10 6 -22zM145 179q0 -25 -5 -77
q-5 -57 -11 -74q-8 -26 -33 -26q-18 0 -31 16.5t-13 35.5q0 4 8 55q6 35 6 76q0 33 38 33q41 0 41 -39z" />
    <glyph glyph-name="idieresis" unicode="&#xef;" horiz-adv-x="192" 
d="M219 334q0 -18 -12 -31t-30 -13q-53 0 -53 72q0 63 43 63q13 0 22.5 -15t9.5 -29q0 -7 10 -20.5t10 -26.5zM60 395q0 -119 -39 -119q-41 0 -41 93q0 65 43 65q37 0 37 -39zM145 179q0 -25 -5 -77q-5 -57 -11 -74q-8 -26 -33 -26q-18 0 -31 16.5t-13 35.5q0 4 8 55
q6 35 6 76q0 33 38 33q41 0 41 -39z" />
    <glyph glyph-name="ntilde" unicode="&#xf1;" horiz-adv-x="498" 
d="M446 414q0 -25 -11 -34q-14 -8 -27.5 -17t-27 -19t-27.5 -14q-25 -8 -50 -15q-30 -10 -52 -10q-19 0 -35.5 13.5t-16.5 34.5l8 26q-10 -4 -51 -34q-55 -40 -74 -40q-35 0 -35 33q0 26 88 75q26 15 52 31q35 20 54 20q20 0 31 -19q9 -14 9 -32q0 -6 -4 -18t-4 -18v-1
q23 0 55.5 15t42.5 33q20 31 38 31q37 0 37 -41zM456 -2q0 -14 -14.5 -26.5t-28.5 -12.5q-33 0 -49 38q-5 10 -19 70q-8 38 -24 38q-18 0 -52.5 -46.5t-56.5 -46.5q-20 0 -25 34t-9 66q-10 35 -43 35q-20 0 -56.5 -16t-46.5 -16q-32 0 -32 36q0 23 64 50q58 25 89 25
q35 0 63 -34.5t36 -34.5q2 0 33 23t64 23q46 0 78 -98q29 -93 29 -107z" />
    <glyph glyph-name="oacute" unicode="&#xf3;" 
d="M348 539q0 -12 -47 -57q-30 -28 -60 -57q-28 -39 -57 -78q-41 -54 -70 -54q-44 0 -44 33t111 129q27 24 48 45t41 42q29 28 46 28q32 0 32 -31zM332 167q0 -83 -44 -136q-46 -56 -129 -56q-48 0 -76.5 28t-28.5 75q0 63 47 119t110 56q8 0 17 -4t13 -4q5 0 15 3t16 3
q60 0 60 -84zM209 144q0 18 -24 18q-19 0 -34 -25q-14 -21 -14 -41v-14q0 -30 34 -30q27 0 27 12q0 4 -2 10.5t-2 9.5q0 12 7.5 32.5t7.5 27.5z" />
    <glyph glyph-name="ograve" unicode="&#xf2;" 
d="M312 377q0 -23 -22.5 -50.5t-44.5 -27.5q-16 0 -19 24q-3 31 -9 38q-20 21 -65 58q-67 54 -70 57q-26 22 -26 51q0 34 40 34q27 0 111 -81q30 -25 61 -49q44 -37 44 -54zM332 167q0 -83 -44 -136q-46 -56 -129 -56q-48 0 -76.5 28t-28.5 75q0 63 47 119t110 56q8 0 17 -4
t13 -4q5 0 15 3t16 3q60 0 60 -84zM209 144q0 18 -24 18q-19 0 -34 -25q-14 -21 -14 -41v-14q0 -30 34 -30q27 0 27 12q0 4 -2 10.5t-2 9.5q0 12 7.5 32.5t7.5 27.5z" />
    <glyph glyph-name="ocircumflex" unicode="&#xf4;" 
d="M368 327q0 -35 -40 -35q-56 0 -56 57q0 14 2 40t2 39q1 2 1 1q-7 0 -59 -38q-47 -34 -61 -46t-34 -12q-41 0 -41 33q0 18 26 31q67 34 154 97q15 13 30 25q19 13 36 13q38 0 38 -26q0 -15 -5.5 -46.5t-5.5 -47.5q0 -48 6.5 -60.5t6.5 -24.5zM332 167q0 -83 -44 -136
q-46 -56 -129 -56q-48 0 -76.5 28t-28.5 75q0 63 47 119t110 56q8 0 17 -4t13 -4q5 0 15 3t16 3q60 0 60 -84zM209 144q0 18 -24 18q-19 0 -34 -25q-14 -21 -14 -41v-14q0 -30 34 -30q27 0 27 12q0 4 -2 10.5t-2 9.5q0 12 7.5 32.5t7.5 27.5z" />
    <glyph glyph-name="odieresis" unicode="&#xf6;" 
d="M322 378q0 -18 -12 -31t-29 -13q-54 0 -54 72q0 63 44 63q13 0 22 -15t9 -28q0 -8 10 -21.5t10 -26.5zM164 439q0 -119 -40 -119t-40 93q0 65 42 65q38 0 38 -39zM332 167q0 -83 -44 -136q-46 -56 -129 -56q-48 0 -76.5 28t-28.5 75q0 63 47 119t110 56q8 0 17 -4t13 -4
q5 0 15 3t16 3q60 0 60 -84zM209 144q0 18 -24 18q-19 0 -34 -25q-14 -21 -14 -41v-14q0 -30 34 -30q27 0 27 12q0 4 -2 10.5t-2 9.5q0 12 7.5 32.5t7.5 27.5z" />
    <glyph glyph-name="otilde" unicode="&#xf5;" 
d="M412 425q0 -26 -11 -35q-15 -8 -28.5 -17t-25.5 -19q-15 -10 -29 -14q-25 -7 -50 -15q-30 -9 -51 -9q-20 0 -35 12q-18 14 -18 35q0 1 8 27q-9 -5 -51 -35q-54 -39 -74 -39q-34 0 -34 33q0 25 87 74q26 16 52 31q36 20 54 20q21 0 32 -19q8 -14 8 -32q0 -6 -4 -17.5
t-4 -17.5q0 -1 1 -1q23 0 55 15t43 32q20 31 38 31q37 0 37 -40zM332 167q0 -83 -44 -136q-46 -56 -129 -56q-48 0 -76.5 28t-28.5 75q0 63 47 119t110 56q8 0 17 -4t13 -4q5 0 15 3t16 3q60 0 60 -84zM209 144q0 18 -24 18q-19 0 -34 -25q-14 -21 -14 -41v-14q0 -30 34 -30
q27 0 27 12q0 4 -2 10.5t-2 9.5q0 12 7.5 32.5t7.5 27.5z" />
    <glyph glyph-name="uacute" unicode="&#xfa;" horiz-adv-x="583" 
d="M333 563q0 -12 -47 -56q-30 -29 -60 -57q-28 -39 -57 -79q-41 -54 -70 -54q-44 0 -44 34q0 33 112 129q27 23 47.5 44.5t40.5 42.5q29 28 46 28q32 0 32 -32zM585 26q0 -17 -69 -26q-47 -6 -92 -6q-35 0 -56 18q-11 9 -24 33q-10 18 -19 18q-8 0 -29 -18q-26 -24 -48 -34
q-36 -19 -82 -19q-103 0 -103 76q0 117 -12 138q-5 10 -5 18q0 28 33 28q35 0 42 -49l6 -92q5 -49 35 -49q58 0 97.5 35t39.5 93q0 6 -2 18t-2 18q0 24 24 24q22 0 35 -40l26 -80q17 -45 44 -53q13 -3 66 -4q48 -1 59 -7q36 -22 36 -40z" />
    <glyph glyph-name="ugrave" unicode="&#xf9;" horiz-adv-x="583" 
d="M293 378q0 -23 -23 -50.5t-45 -27.5q-16 0 -18 24q-3 31 -10 38q-19 21 -65 58q-66 54 -70 57q-25 22 -25 51q0 34 39 34q28 0 111 -81q31 -25 61 -49q45 -37 45 -54zM585 26q0 -17 -69 -26q-47 -6 -92 -6q-35 0 -56 18q-11 9 -24 33q-10 18 -19 18q-8 0 -29 -18
q-26 -24 -48 -34q-36 -19 -82 -19q-103 0 -103 76q0 117 -12 138q-5 10 -5 18q0 28 33 28q35 0 42 -49l6 -92q5 -49 35 -49q58 0 97.5 35t39.5 93q0 6 -2 18t-2 18q0 24 24 24q22 0 35 -40l26 -80q17 -45 44 -53q13 -3 66 -4q48 -1 59 -7q36 -22 36 -40z" />
    <glyph glyph-name="ucircumflex" unicode="&#xfb;" horiz-adv-x="583" 
d="M341 342q0 -36 -40 -36q-56 0 -56 58q0 13 2 39.5t2 38.5q1 2 -2.5 2t-56.5 -38q-46 -34 -60 -46t-35 -12q-40 0 -40 33q0 17 26 31q67 34 153 97q16 12 32.5 24.5t34.5 12.5q37 0 37 -26q0 -15 -5.5 -46.5t-5.5 -47.5q0 -48 8 -62q6 -10 6 -22zM585 26q0 -17 -69 -26
q-47 -6 -92 -6q-35 0 -56 18q-11 9 -24 33q-10 18 -19 18q-8 0 -29 -18q-26 -24 -48 -34q-36 -19 -82 -19q-103 0 -103 76q0 117 -12 138q-5 10 -5 18q0 28 33 28q35 0 42 -49l6 -92q5 -49 35 -49q58 0 97.5 35t39.5 93q0 6 -2 18t-2 18q0 24 24 24q22 0 35 -40l26 -80
q17 -45 44 -53q13 -3 66 -4q48 -1 59 -7q36 -22 36 -40z" />
    <glyph glyph-name="udieresis" unicode="&#xfc;" horiz-adv-x="583" 
d="M314 366q0 -18 -12 -30.5t-30 -12.5q-53 0 -53 71q0 63 44 63q13 0 22 -14.5t9 -28.5q0 -8 10 -21.5t10 -26.5zM156 427q0 -119 -40 -119t-40 94q0 65 42 65q38 0 38 -40zM585 26q0 -17 -69 -26q-47 -6 -92 -6q-35 0 -56 18q-11 9 -24 33q-10 18 -19 18q-8 0 -29 -18
q-26 -24 -48 -34q-36 -19 -82 -19q-103 0 -103 76q0 117 -12 138q-5 10 -5 18q0 28 33 28q35 0 42 -49l6 -92q5 -49 35 -49q58 0 97.5 35t39.5 93q0 6 -2 18t-2 18q0 24 24 24q22 0 35 -40l26 -80q17 -45 44 -53q13 -3 66 -4q48 -1 59 -7q36 -22 36 -40z" />
    <glyph glyph-name="dagger" unicode="&#x2020;" horiz-adv-x="200" 
d="M194 348q0 -16 -15 -29.5t-30 -13.5h-23q-6 -50 -6 -77q0 -18 15 -57q4 -9 4 -14q0 -24 -29 -24q-24 0 -38.5 16.5t-14.5 39.5q0 40 7 111h-14q-14 0 -28.5 10.5t-14.5 26.5q0 27 36 27q12 0 26 2q3 27 7 44q11 38 41 38q15 0 24 -15q7 -11 7 -24q0 -5 -10 -31l-1 -1h9
q48 0 48 -29z" />
    <glyph glyph-name="degree" unicode="&#xb0;" horiz-adv-x="359" 
d="M326 377q0 -50 -58 -72q-40 -16 -99 -16q-45 0 -79 20q-40 24 -40 66q0 63 77 111q28 17 56 35q38 22 59 22q17 0 37.5 -14t20.5 -30q0 -3 -8.5 -13t-8.5 -18q0 -10 21.5 -36t21.5 -55zM250 373q0 9 -9 25t-11 22l-4 22q-4 16 -12 16q-16 0 -53.5 -33t-37.5 -48
q0 -19 55 -19q44 0 42 0q30 2 30 15z" />
    <glyph glyph-name="cent" unicode="&#xa2;" horiz-adv-x="479" 
d="M465 50q0 3 -6 -21q-4 -16 -33 -19q-5 -1 -42 -1q-25 0 -57 2q21 -65 21 -66q0 -31 -36 -31t-58.5 29t-22.5 71v2q-110 10 -137 31q-52 41 -52 117q0 110 114 177q62 37 99 50q4 55 12 89q16 66 58 66q18 0 29.5 -20t11.5 -41q0 -11 -10 -35q-12 -28 -15 -42h13
q87 0 87 -39q0 -24 -45 -24q-9 0 -26 3.5t-26 3.5q-5 0 -10 -1q-22 -183 -22 -253q0 -9 1 -17q152 2 152 -31zM250 323q-87 -38 -104 -62q-34 -46 -34 -103q0 -51 31 -67q20 -11 78 -11l12 1q1 30 16 227z" />
    <glyph glyph-name="sterling" unicode="&#xa3;" horiz-adv-x="496" 
d="M465 33q0 -46 -65 -54q-51 -1 -101 -3q-26 -2 -71 -12q-39 -9 -53 -9q-17 0 -72 -5.5t-65 -9.5q-5 -2 -9 -2q-13 0 -23 12.5t-10 25.5q0 26 54 31q50 4 100 7q54 9 55 46v9l-1 5q-7 24 -19 72q-41 -6 -65 -6q-25 0 -51 9q-35 13 -35 32q0 34 82 34q27 0 52 1
q-30 128 -30 157q0 57 51 99q48 38 106 38q55 0 91 -39q18 -20 54 -86q12 -21 12 -32q0 -15 -20 -23q-44 -19 -51 -19q-13 0 -29.5 15t-16.5 29q0 6 10 14t10 17q0 20 -26 35q-22 14 -44 14q-28 0 -52.5 -20t-24.5 -47q0 -37 28 -146q23 2 44 6q6 1 41 11q27 8 41 8
q27 0 61 -20q38 -21 38 -46q0 -28 -44 -28q-17 0 -49.5 5t-49.5 5q-26 0 -64 -5q11 -40 21 -72q6 -20 6 -33q0 -5 -1 -9q9 -3 24 -3q20 0 59.5 3t59.5 3q42 0 42 -14z" />
    <glyph glyph-name="section" unicode="&#xa7;" horiz-adv-x="380" 
d="M329 128q0 -59 -52 -100q50 -33 50 -76q0 -63 -60 -103q-19 -13 -54 -29q-40 -17 -56 -17q-19 0 -39.5 24.5t-20.5 49.5q0 12 9 20.5t18 8.5q7 0 25 -11.5t29 -11.5q16 0 54.5 24t38.5 41q0 22 -58 44q-30 -13 -43 -13q-21 0 -42 17.5t-18 34.5q-75 35 -75 88q0 60 72 98
q-51 32 -51 77q0 55 56 91q46 30 90 30q23 0 50 -25t27 -56q0 -21 -13.5 -45t-28.5 -24q-12 0 -12 15q0 6 2.5 19t2.5 20q0 33 -31 33q-20 0 -50 -15q-37 -18 -37 -41q0 -14 30 -29q2 -1 70 -28q46 -3 43 -19q74 -38 74 -92zM278 124q0 23 -83 54q-5 -2 -7 -2q-22 0 -54 -15
q-40 -18 -40 -40q0 -15 34 -30q39 -14 77 -29q23 10 46 28q27 20 27 34z" />
    <glyph glyph-name="bullet" unicode="&#x2022;" horiz-adv-x="359" 
d="M326 191q0 -50 -58 -73q-40 -15 -99 -15q-45 0 -79 19q-40 24 -40 66q0 63 77 111q28 17 56 35q38 22 59 22q17 0 37.5 -13.5t20.5 -29.5q0 -3 -8.5 -13t-8.5 -19t21.5 -35.5t21.5 -54.5z" />
    <glyph glyph-name="paragraph" unicode="&#xb6;" horiz-adv-x="461" 
d="M400 169v-67v-66q0 -31 -28 -31q-48 0 -48 77q0 5 5 120q-11 1 -16 1q-18 0 -42 -1q5 -65 13 -85q26 -61 26 -81q0 -13 -15 -24.5t-29 -11.5q-26 0 -42 44q-13 35 -13 65q0 36 -3 92q-43 -1 -70 -1q-122 0 -122 73q0 75 67.5 138t143.5 63q85 0 97 -59q7 32 26 32
q14 0 28.5 -9t14.5 -22q0 -42 3.5 -124t3.5 -123zM330 262q-4 39 -8 118q-13 -37 -44 -37h-12v-6q0 -23 2 -72q35 0 62 -3zM215 392h-8q-33 0 -75 -33.5t-42 -65.5q0 -33 115 -28q-2 40 -2 70q0 37 12 57z" />
    <glyph glyph-name="germandbls" unicode="&#xdf;" horiz-adv-x="459" 
d="M424 82q0 -15 -8 -28q-16 -42 -67 -68q-23 -12 -64 -25q-46 -15 -66 -15q-22 0 -46 21.5t-24 43.5q0 11 10 18.5t21 7.5q8 0 29.5 -10.5t34.5 -10.5q18 0 64.5 21.5t46.5 36.5q-1 14 -32 42q-11 9 -91 31q-63 18 -63 51q0 23 38 37t77 28q52 24 54 50q2 25 -10.5 42
t-36.5 17q-66 0 -127 -20q-31 -10 -34 -20l-10 -28q-6 -9 -6 -24q0 -17 12 -75q1 -6 1 -16q0 -38 -15 -140q-9 -60 -19 -121q-7 -50 -9 -55q-9 -24 -40 -20q-26 16 -26 53q0 7 28 101t29 107q0 24 -20.5 26t-20.5 42q0 19 18.5 29t16.5 32q-7 58 -2 92q6 45 78 72
q59 22 126 22q25 0 79 -26q60 -30 60 -55q0 -43 -32 -77q-19 -19 -59 -43q-32 -18 -32 -25t24 -18q29 -14 32 -16q44 -35 49 -39q32 -29 32 -48z" />
    <glyph glyph-name="registered" unicode="&#xae;" horiz-adv-x="393" 
d="M336 425q0 -79 -21 -121q7 -10 7 -20q0 -18 -22 -18q-7 0 -13 3q-30 -30 -54 -42q-28 -13 -69 -13q-53 0 -84 31.5t-31 85.5q0 87 72 163.5t116 76.5q27 0 59.5 -25t36 -50.5t3.5 -70.5zM290 446q0 35 -13 49.5t-46 14.5q-42 0 -84 -58q5 1 14 1l1 2q21 26 74 26
q51 0 51 -38q0 -37 -38 -59q-9 -5 -28 -14q4 -3 11 -7q11 -6 36 -21q22 56 22 104zM244 439q-29 -3 -44 -11q-10 -5 -12 -30q1 1 32 19q24 14 24 22zM245 300q-10 6 -31 18q-17 10 -29 25v-17q0 -42 -23 -42q-25 0 -25 24q0 10 1.5 31t1.5 32q0 31 -2 45q-2 10 -2 15v3
q-37 -61 -37 -109q0 -39 33 -49q15 -5 66 -5q26 0 47 29z" />
    <glyph glyph-name="copyright" unicode="&#xa9;" horiz-adv-x="656" 
d="M619 299q0 -104 -52 -186q-2 -5 -6 -9q-17 -26 -35 -42q-45 -42 -90 -42q-5 0 -11 -8q-23 -27 -111 -41q-64 -10 -125 -10q-71 0 -105 22q-47 30 -47 108q0 76 45 160q38 71 96 127q69 65 118 93q67 39 137 39q76 0 131 -60t55 -151zM554 298q0 35 -11 78
q-15 55 -37.5 61.5t-44.5 6.5q-37 0 -120 -30q-73 -27 -150 -128q-79 -104 -79 -180q0 -41 11.5 -58t41.5 -17q132 0 254 63q-81 -2 -107 -2q-121 0 -121 74q0 75 67 137.5t143 62.5q39 0 67 -16q32 -20 32 -57q0 -21 -13 -38q-14 -20 -35 -20q-35 0 -41.5 25t-29.5 25
q-33 0 -75 -34t-42 -65q0 -24 57 -28q-2 0 74 0q77 0 105 -3q54 72 54 143z" />
    <glyph glyph-name="trademark" unicode="&#x2122;" horiz-adv-x="614" 
d="M476 299q0 -27 -28 -27q-41 0 -41 41q0 6 1 28q-19 -9 -36 -9q-16 0 -31 7v-20q-1 -13 -1 -20q0 -36 -30 -36q-27 0 -27 41q0 19 -2 49q-3 39 -3 50q-9 -7 -27 -8q-27 -2 -81 -4q23 -97 23 -129t-25 -32q-32 0 -35 39q-10 108 -23 121h-4q-72 4 -72 31q0 10 12 20.5
t21 10.5q-1 0 21 -5q12 -2 34 -2q64 0 89 6q18 4 30 4q27 0 39 -19q7 19 25 19q17 0 39.5 -33t29.5 -33q18 0 36 24q11 14 25 14q9 0 19 -8t10 -20t-1 -36t-1 -35v-4q0 -1 2 -2q12 -7 12 -23z" />
    <glyph glyph-name="acute" unicode="&#xb4;" horiz-adv-x="328" 
d="M317 490q0 -11 -47 -56q-30 -28 -60 -57q-29 -39 -57 -78q-41 -55 -70 -55q-44 0 -44 34q0 33 111 129q27 24 48 45t41 42q29 28 46 28q32 0 32 -32z" />
    <glyph glyph-name="dieresis" unicode="&#xa8;" horiz-adv-x="315" 
d="M276 373q0 -18 -11.5 -30.5t-29.5 -12.5q-54 0 -54 71q0 63 44 63q13 0 22.5 -14.5t9.5 -28.5q0 -8 9.5 -21.5t9.5 -26.5zM118 434q0 -119 -39 -119q-41 0 -41 94q0 65 43 65q37 0 37 -40z" />
    <glyph glyph-name="AE" unicode="&#xc6;" horiz-adv-x="729" 
d="M733 373q0 -26 -64 -32q-53 1 -159 -10q-11 -2 -56 -17q-37 -12 -57 -12q-16 0 -21 -22q-10 -37 -13 -79v-4q-1 -7 6 -7q2 0 11 3q31 10 97 13q20 2 61 16.5t62 14.5q13 0 27 -7.5t14 -19.5q0 -14 -20.5 -29.5t-36.5 -17.5q-36 -2 -107 -12q-46 -11 -68 -11
q-14 0 -22.5 6.5t-18.5 6.5t-14 -8l-2 -8v-6q0 -27 60 -42q44 -11 83 -11q89 0 103 19q15 24 25 24q14 0 27 -27q11 -23 11 -39q0 -28 -28 -35q-78 -20 -134 -20q-32 0 -85 17q-56 18 -84 39q7 -44 0 -60q-6 -15 -25 -29.5t-34 -14.5q-12 0 -12 22q0 23 9 44q6 15 4 46.5
t2 40.5q3 8 -31 11q-21 0 -42 1q-6 0 -28 3q-17 1 -28 1q-40 0 -54 -22q-22 -29 -64 -87q-14 -20 -50 -20q-23 0 -11 29q10 23 100 113q95 95 117 132q30 40 79 125q25 61 41 61q9 0 24 -13q27 -26 39 -66q14 -10 31 -10q13 0 36 8l36 12q54 14 119 14h65q40 0 47 -1
q33 -4 33 -23zM312 310q-4 33 -16 33q-7 0 -23 -30q-11 -18 -21 -37q-2 -3 -42 -46q-32 -34 -32 -45q0 -18 81 -18q24 0 37 19q8 30 8 46q0 36 8 78z" />
    <glyph glyph-name="Oslash" unicode="&#xd8;" horiz-adv-x="414" 
d="M375 212q0 -124 -46 -172q-42 -43 -70 -58q-35 -19 -87 -19q-25 0 -47 7q-12 -20 -22 -32q-23 -30 -46 -30q-12 0 -23 12.5t-11 25.5q0 14 12 31t27 37q-25 35 -25 87q0 102 85 192t137 90q15 0 35 -9q3 10 12 27q10 12 33 12q12 0 22.5 -10t10.5 -22t-21 -45l-2 -2
q20 -22 25 -58q1 -11 1 -64zM305 223q0 20 -4 32q-77 -136 -123 -205h36q41 0 69 69q22 56 22 104zM247 287h-1q-46 0 -90 -70q-39 -63 -39 -114v-11q35 47 57 82q44 65 73 113z" />
    <glyph glyph-name="yen" unicode="&#xa5;" horiz-adv-x="509" 
d="M494 423q0 -26 -38 -71q-34 -40 -61 -56q-10 -6 -84 -37q65 2 111 2q14 0 24 -11t10 -25q0 -32 -42 -32q-25 0 -75 1h-75h-22q-10 -30 -14 -58q13 2 25 4q7 1 42 11q27 7 41 7q26 0 60 -19q39 -22 39 -46q0 -28 -45 -28q-16 0 -48.5 5t-49.5 5q-23 0 -54 -4
q8 -6 16 -13.5t8 -29.5q0 -13 -14.5 -21.5t-29.5 -8.5q-42 0 -57 60q-43 -7 -68 -7q-24 0 -51 10q-34 12 -34 32q0 34 81 34q36 0 68 2q7 21 13 65q-77 -2 -89 -9q-17 -9 -37 -9q-48 0 -48 39q0 28 71 35q-39 36 -39 87q0 110 56 110q12 0 25.5 -8t13.5 -20q0 -8 -16 -29
t-16 -29q0 -67 88 -67q60 0 138 36q92 42 92 95q0 39 40 39q12 0 28.5 -14.5t16.5 -26.5z" />
    <glyph glyph-name="ordfeminine" unicode="&#xaa;" horiz-adv-x="450" 
d="M447 138q0 -28 -44 -28q-17 0 -49.5 5t-49.5 5q-32 0 -101 -12t-97 -12q-25 0 -51 10q-35 12 -35 32q0 34 82 34q91 0 164 13q16 4 49 13q-6 4 -10 8q-16 23 -34 46q-1 0 -13 -9.5t-14 -10.5q-30 -18 -86 -18q-109 0 -109 98q0 31 18 76q21 51 45 60q32 15 64 29
q37 15 67 15q50 0 70 -28q50 -12 50 -44q0 -17 -6.5 -51.5t-6.5 -51.5q0 -48 24 -64q5 -3 45 -12q25 -6 25 -30q0 -23 -27 -32q30 -20 30 -41zM265 339q0 18 -16 18q-4 0 -18.5 -8t-22.5 -8t-16.5 6.5t-8.5 14.5q0 9 25 24t25 26q0 7 -11 7q-31 0 -64.5 -34.5t-33.5 -65.5
q0 -33 42 -33q26 0 59 14q40 17 40 39z" />
    <glyph glyph-name="ordmasculine" unicode="&#xba;" 
d="M332 397q0 -84 -44 -136q-46 -56 -129 -56q-48 0 -76.5 27.5t-28.5 75.5q0 63 47 118.5t110 55.5q8 0 17 -4t13 -4q5 0 15 3t16 3q60 0 60 -83zM366 155q0 -50 -35 -50q-9 0 -28.5 6.5t-29.5 6.5q-7 0 -18 -3q-20 -5 -83 -9q-72 -5 -112 -5q-23 0 -23 30q0 16 9.5 32
t17.5 16q12 0 36.5 -1t37.5 -1q32 0 97 11t98 11t33 -44zM209 374q0 17 -24 17q-19 0 -33.5 -23t-14.5 -42v-14q0 -30 34 -30q27 0 27 12q0 3 -2 9.5t-2 10.5q0 11 7.5 31.5t7.5 28.5z" />
    <glyph glyph-name="ae" unicode="&#xe6;" horiz-adv-x="695" 
d="M695 37q0 -14 -20 -28q-17 -10 -33 -14q-138 -32 -206 -32q-92 0 -153 64l-12 8q-1 0 -13 -9.5t-14 -10.5q-30 -18 -86 -18q-109 0 -109 98q0 32 18 76q21 51 45 61l64 28q37 15 67 15q50 0 70 -28q21 -4 31 -10q38 28 88 28q75 0 75 -64q0 -61 -62 -91q-44 -15 -88 -31
q5 -10 13 -32q36 -16 88 -16q67 0 136 12q49 8 54 8q47 0 47 -14zM437 178q0 16 -32 16q-22 0 -45 -26q-2 -11 -7 -34h2q16 -1 49 15t33 29zM265 125q-1 15 -16 15q-4 0 -18.5 -8t-22.5 -8t-16.5 6.5t-8.5 14.5q0 9 25 24t25 26q0 7 -11 7q-31 0 -64.5 -34.5t-33.5 -64.5
q0 -34 42 -34q20 0 48 10q34 11 46 28q2 9 5 18z" />
    <glyph glyph-name="oslash" unicode="&#xf8;" 
d="M395 327q0 -13 -21 -45t-47 -76q5 -17 5 -39q0 -75 -36 -126q-39 -54 -108 -64l-16 -25q-15 -24 -47 -69q-23 -29 -45 -29q-13 0 -23.5 12t-10.5 25q0 14 12 32q18 25 46 64q-50 26 -50 91q0 63 47 119t110 56q8 0 17 -4t13 -4q5 0 15 3t16 3q4 0 8 -1q33 56 42 83
q2 8 7 14q9 11 32 11q12 0 23 -9.5t11 -21.5zM209 144q0 18 -24 18q-19 0 -34 -25q-14 -21 -14 -41v-14q0 -20 16 -27q26 37 44 64l11 17q1 5 1 8z" />
    <glyph glyph-name="questiondown" unicode="&#xbf;" horiz-adv-x="400" 
d="M308 323q0 -11 -12.5 -26.5t-22.5 -15.5q-50 0 -50 50q0 18 13.5 29.5t32.5 11.5q18 0 28.5 -15t10.5 -34zM379 -79q0 -30 -21 -51q-10 -9 -48 -32q-57 -35 -79 -46q-47 -22 -87 -22q-46 0 -80 23q-39 26 -39 70q0 62 50 124q19 24 92 92q50 46 50 70q0 41 44 41
q15 0 23 -18.5t8 -34.5q0 -34 -94 -124t-94 -126q0 -43 44 -43q41 0 85.5 22.5t68.5 56.5q30 41 52 41q25 0 25 -43z" />
    <glyph glyph-name="exclamdown" unicode="&#xa1;" horiz-adv-x="211" 
d="M154 288q0 -51 -50 -51q-22 0 -30 8.5t-8 29.5t18 54q21 37 39 37q31 0 31 -78zM138 57q0 -28 -3 -84.5t-3 -85.5q0 -14 1.5 -43t1.5 -44q0 -32 -37 -32q-24 0 -32 9t-8 34q0 41 1 124t1 125q0 64 36 64q19 0 32 -25q10 -21 10 -42z" />
    <glyph glyph-name="florin" unicode="&#x192;" horiz-adv-x="521" 
d="M526 197q0 -29 -62 -36q-121 -14 -212 -14q-38 0 -38 -16q0 -7 19 -65q11 -18 11 -56q0 -31 -25 -61q-22 -26 -54 -42q-26 -13 -73 -28q-52 -18 -74 -18q-25 0 -52 24.5t-27 49.5q0 12 11.5 21t23.5 9q9 0 33.5 -12t38.5 -12q21 0 71 23q54 25 54 42q0 11 2 20
q-13 32 -38 97q-4 12 -9.5 14t-22.5 2q-83 0 -83 36q0 25 19 32q6 2 35 4q18 1 18 11q0 12 -4.5 42t-4.5 46q0 69 41 128q45 66 110 66q38 0 61 -42q19 -35 19 -75q0 -106 -82 -147q-16 -8 -16 -14q0 -17 56 -17q27 0 78.5 8.5t78.5 8.5t56 -6q41 -8 41 -23zM252 379
q0 54 -26 54q-37 0 -57 -51q-14 -37 -14 -82q0 -26 16 -26q23 0 53 42q28 39 28 63z" />
    <glyph glyph-name="guillemotleft" unicode="&#xab;" horiz-adv-x="614" 
d="M583 61q0 -11 -11 -21t-21 -10t-26 9q-21 13 -25 14q-11 4 -69 37q-39 22 -75 23q-44 3 -53 5q-33 8 -33 33q0 16 23 33q18 11 36 23q54 34 115 84q25 20 49 41q37 29 50 29q31 0 31 -37q0 -13 -98 -87q-63 -48 -81 -64q61 -12 115 -46q16 -10 49 -29q24 -12 24 -37z
M330 288q0 -19 -25 -40q-41 -29 -120 -90q-3 -3 -26 -20l-3 -2q13 -5 34 -23.5t32 -22.5q23 -5 67 -17q25 -7 25 -33q0 -13 -7 -25q-9 -15 -23 -15q-9 0 -23.5 5t-22.5 5q-14 0 -27.5 9.5t-25.5 18.5q-18 13 -57 31q-18 10 -55 25q-27 7 -27 27q0 18 16 30q6 4 32 18
q19 10 45 30q21 17 42 35q30 24 59 49q46 37 59 37q31 0 31 -32z" />
    <glyph glyph-name="guillemotright" unicode="&#xbb;" horiz-adv-x="614" 
d="M583 240q0 -18 -16 -30q-5 -4 -31 -17q-20 -10 -46 -31l-42 -34q-30 -25 -59 -49q-46 -37 -58 -37q-32 0 -32 31q0 20 25 40q41 29 120 91q3 2 27 19l3 2q-14 5 -35 23.5t-32 22.5q-23 5 -67 17q-24 7 -24 33q0 13 7.5 26.5t22.5 13.5q8 0 22.5 -5t22.5 -5
q14 0 27.5 -9.5t25.5 -18.5q18 -12 57 -31q18 -10 55 -25q27 -7 27 -27zM360 210q0 -16 -23 -33q-19 -11 -37 -22q-54 -35 -115 -84q-25 -21 -49 -41q-37 -30 -50 -30q-31 0 -31 38q0 12 98 86q63 48 81 64q-61 12 -115 46q-16 11 -49 29q-24 12 -24 37q0 11 11 21t21 10
t26 -9q21 -12 25 -14q11 -4 69 -36q39 -22 75 -24q44 -2 53 -4q34 -8 34 -34z" />
    <glyph glyph-name="ellipsis" unicode="&#x2026;" horiz-adv-x="570" 
d="M503 6q0 -13 -11.5 -22.5t-29.5 -9.5q-54 0 -54 52q0 46 44 46q13 0 22.5 -10.5t9.5 -20.5q0 -6 9.5 -16t9.5 -19zM325 50q0 -87 -39 -87q-41 0 -41 69q0 47 43 47q37 0 37 -29zM160 13q0 -12 -16.5 -28t-28.5 -16q-21 0 -32.5 17t-11.5 37q0 19 9 38q11 23 27 22
q53 -5 53 -70z" />
    <glyph glyph-name="nonbreakingspace" unicode="&#xa0;" horiz-adv-x="239" 
 />
    <glyph glyph-name="Agrave" unicode="&#xc0;" horiz-adv-x="461" 
d="M333 491q0 -23 -22.5 -50.5t-45.5 -27.5q-16 0 -18 24q-3 31 -9 38q-20 21 -66 58q-66 54 -69 57q-26 22 -26 51q0 34 39 34q28 0 112 -81q30 -25 60 -49q45 -37 45 -54zM475 137q0 -25 -90 -25q-31 0 -31 -25q0 -16 17 -43.5t17 -47.5q0 -15 -13.5 -29.5t-28.5 -14.5
q-13 0 -22 28q-7 22 -7 38q0 13 -15 47t-15 41t-35 10q-21 0 -42 1q-7 0 -30 3q-18 1 -29 1q-40 0 -45 -22l-27 -87q-7 -20 -42 -20q-23 0 -23 29q0 23 53 113q56 95 63 132q2 13 17 62q11 37 11 63q0 61 16 61q10 0 30 -13q85 -59 105 -149q7 -34 14 -67q14 -55 25 -60
q4 -2 71 -6q56 -4 56 -20zM278 199q0 25 -23 82q-26 62 -44 62q-6 0 -10 -30q-3 -18 -5 -37q-3 -9 -22 -43q-16 -30 -16 -43q0 -23 89 -23q31 0 31 32z" />
    <glyph glyph-name="Atilde" unicode="&#xc3;" horiz-adv-x="461" 
d="M447 553q0 -25 -11 -34q-15 -8 -28.5 -17t-25.5 -19q-15 -10 -29 -14q-25 -8 -50 -15q-30 -9 -51 -9q-20 0 -36.5 13t-16.5 34q0 1 8 27q-9 -5 -51 -35q-55 -39 -74 -39q-34 0 -34 33q0 25 87 74q26 16 52 31q36 20 54 20q20 0 31 -19q9 -14 9 -32q0 -6 -4 -18t-4 -18
l1 -1q22 0 54.5 15.5t43.5 32.5q20 31 38 31q37 0 37 -41zM475 137q0 -25 -90 -25q-31 0 -31 -25q0 -16 17 -43.5t17 -47.5q0 -15 -13.5 -29.5t-28.5 -14.5q-13 0 -22 28q-7 22 -7 38q0 13 -15 47t-15 41t-35 10q-21 0 -42 1q-7 0 -30 3q-18 1 -29 1q-40 0 -45 -22l-27 -87
q-7 -20 -42 -20q-23 0 -23 29q0 23 53 113q56 95 63 132q2 13 17 62q11 37 11 63q0 61 16 61q10 0 30 -13q85 -59 105 -149q7 -34 14 -67q14 -55 25 -60q4 -2 71 -6q56 -4 56 -20zM278 199q0 25 -23 82q-26 62 -44 62q-6 0 -10 -30q-3 -18 -5 -37q-3 -9 -22 -43
q-16 -30 -16 -43q0 -23 89 -23q31 0 31 32z" />
    <glyph glyph-name="Otilde" unicode="&#xd5;" horiz-adv-x="393" 
d="M421 486q0 -26 -11 -34q-14 -8 -27.5 -17t-27 -19.5t-27.5 -13.5l-50 -16q-30 -9 -52 -9q-19 0 -35.5 13.5t-16.5 33.5q0 1 8 27q-10 -4 -51 -34q-55 -40 -75 -40q-34 0 -34 33q0 26 87 74l52 32q36 20 55 20q20 0 31 -19q8 -15 8 -32q0 -7 -3.5 -18.5t-3.5 -17.5v-1
q23 0 55 15t43 32q20 32 38 32q37 0 37 -41zM336 202q0 -106 -39 -146q-35 -37 -59 -50q-30 -16 -74 -16q-53 0 -84 32t-31 85q0 87 73 165q71 75 115 75q27 0 59.5 -25t36 -50.5t3.5 -69.5zM273 210q0 52 -47 52q-38 0 -73 -56q-33 -52 -33 -93q0 -31 27 -40q12 -3 53 -3
q33 0 55 56q18 45 18 84z" />
    <glyph glyph-name="OE" unicode="&#x152;" horiz-adv-x="703" 
d="M703 373q0 -26 -63 -32q-53 1 -159 -10q-11 -2 -57 -17q-36 -12 -56 -12q-16 0 -22 -22q-3 -12 -10 -58q1 -12 0 -20v-11q2 -1 3 -1q3 0 11 3q32 10 97 13q21 2 62 16.5t62 14.5q13 0 27 -7.5t14 -19.5q0 -14 -21 -29.5t-37 -17.5q-36 -2 -107 -12q-57 -14 -71 -14
q-10 0 -21 8t-17 8q-2 0 -4 -1q-2 -19 -6 -36q14 -18 64 -30q40 -8 73 -8q90 0 103 19q16 24 26 24q14 0 26 -27q11 -23 11 -39q0 -28 -27 -35q-78 -20 -135 -20q-32 0 -87.5 18.5t-82.5 39.5l-2 -2q-34 -37 -59 -50q-30 -16 -74 -16q-53 0 -84 32t-31 85q0 87 73 165
q71 75 115 75q22 0 49 -18q13 52 34 52q6 0 18.5 -9t29.5 -9q13 0 36 8l36 12q54 14 118 14h65q40 0 47 -1q33 -4 33 -23zM273 214q-1 48 -47 48q-38 0 -73 -56q-33 -52 -33 -93q0 -31 27 -40q12 -3 53 -3q36 0 59 66v3q0 15 5 38q8 30 9 37z" />
    <glyph glyph-name="oe" unicode="&#x153;" horiz-adv-x="627" 
d="M633 53q0 -14 -18.5 -26t-34.5 -15q-138 -32 -207 -32q-55 0 -107 29q-43 -34 -107 -34q-48 0 -76.5 28t-28.5 75q0 63 47 119t110 56q8 0 17 -4t13 -4q5 0 15 3t16 3h6q40 31 91 31q76 0 76 -64q0 -51 -43 -80q-23 -16 -77 -32q-6 -23 -16 -43q39 -15 87 -15
q67 0 135 11q50 8 55 8q47 0 47 -14zM375 195q0 16 -33 16q-6 0 -15 -4q5 -18 5 -40v-5q43 18 43 33zM207 151q-6 11 -22 11q-19 0 -34 -25q-14 -21 -14 -41v-14q0 -30 34 -30q27 0 27 12q0 4 -2 10.5t-2 9.5q0 2 3 18.5t10 48.5z" />
    <glyph glyph-name="endash" unicode="&#x2013;" horiz-adv-x="532" 
d="M489 209q0 -19 -20 -25q-10 -2 -50 -2q-47 0 -138.5 -11t-137.5 -11q-103 0 -103 32q0 18 31 35.5t62 17.5q44 0 133 5t133 5q30 0 60 -13.5t30 -32.5z" />
    <glyph glyph-name="emdash" unicode="&#x2014;" horiz-adv-x="695" 
d="M664 209q0 -19 -27 -25q-15 -2 -71 -2q-64 0 -191.5 -11t-191.5 -11q-143 0 -143 32q0 18 43.5 35.5t85.5 17.5q62 0 185 5t185 5q42 0 83.5 -13.5t41.5 -32.5z" />
    <glyph glyph-name="quotedblleft" unicode="&#x201c;" horiz-adv-x="551" 
d="M526 541q0 2 -82.5 -92t-82.5 -132q0 -42 36 -42q6 0 26 11t34 11q39 0 39 -38q0 -22 -31.5 -39t-55.5 -17q-46 0 -87 26q-46 28 -46 72q0 42 31 84l60 68q94 116 119 116q40 0 40 -28zM258 537q0 -12 -25 -26q-34 -20 -36 -22q-18 -16 -52 -77t-34 -82q0 -43 20 -43
q4 0 25 21.5t49 21.5q42 0 42 -31q0 -37 -34 -62.5t-72 -25.5q-45 0 -73 30t-28 76q0 88 75 182q31 38 41 47q26 25 55 25q47 0 47 -34z" />
    <glyph glyph-name="quotedblright" unicode="&#x201d;" horiz-adv-x="628" 
d="M589 435q0 -59 -57.5 -114.5t-116.5 -55.5q-26 0 -26 41q0 20 31 33q54 21 58 23q32 20 32 58q0 49 -40 49q-18 0 -47.5 -23.5t-35.5 -23.5q-20 0 -34 13t-14 32q0 43 68 60l48 14q30 9 49 9q37 0 62 -40q23 -36 23 -75zM264 429q0 -33 -52.5 -90.5t-84.5 -57.5
q-29 0 -29 41q0 29 39.5 58.5t39.5 52.5q0 30 -34 30q-3 0 -22.5 -12t-36.5 -12q-40 0 -40 40q0 25 42 46q36 19 63 19q51 0 83 -31.5t32 -83.5z" />
    <glyph glyph-name="quoteleft" unicode="&#x2018;" horiz-adv-x="294" 
d="M258 537q0 -12 -25 -26q-34 -20 -36 -22q-18 -16 -52 -77t-34 -82q0 -43 20 -43q4 0 25 21.5t49 21.5q42 0 42 -31q0 -37 -34 -62.5t-72 -25.5q-45 0 -73 30t-28 76q0 88 75 182q31 38 41 47q26 25 55 25q47 0 47 -34z" />
    <glyph glyph-name="quoteright" unicode="&#x2019;" horiz-adv-x="311" 
d="M264 429q0 -33 -52.5 -90.5t-84.5 -57.5q-29 0 -29 41q0 29 39.5 58.5t39.5 52.5q0 30 -34 30q-3 0 -22.5 -12t-36.5 -12q-40 0 -40 40q0 25 42 46q36 19 63 19q51 0 83 -31.5t32 -83.5z" />
    <glyph glyph-name="ydieresis" unicode="&#xff;" horiz-adv-x="455" 
d="M345 370q0 -18 -12 -30.5t-30 -12.5q-53 0 -53 71q0 63 43 63q13 0 22.5 -14.5t9.5 -28.5q0 -8 10 -21t10 -27zM187 431q0 -119 -40 -119t-40 94q0 65 42 65q38 0 38 -40zM398 -52q0 -66 -29 -97.5t-96 -31.5q-113 0 -113 49q0 33 47 40q8 1 71 1q49 0 49 41q0 23 -10 73
q-12 59 -26 59q-9 0 -54.5 -31.5t-86.5 -31.5q-95 0 -95 153q0 99 44 99q37 0 37 -36q0 -12 -4 -37t-4 -38q0 -66 31 -66q16 0 45 18q60 39 83 95q10 26 14 31q10 13 30 13q26 0 33 -28q2 -9 2 -48t16 -113.5t16 -113.5z" />
    <glyph glyph-name="Ydieresis" unicode="&#x178;" horiz-adv-x="509" 
d="M372 507q0 -18 -12 -31t-30 -13q-53 0 -53 72q0 63 43 63q13 0 22.5 -15t9.5 -29q0 -7 10 -20.5t10 -26.5zM213 568q0 -119 -39 -119q-41 0 -41 93q0 65 43 65q37 0 37 -39zM494 423q0 -26 -38 -71q-34 -40 -61 -56q-63 -27 -133 -60q-12 -12 -24 -56q-12 -40 -12 -61
q0 -41 18 -53.5t18 -37.5q0 -13 -14.5 -21.5t-29.5 -8.5q-35 0 -51 40q-12 29 -12 69q0 15 7.5 44.5t7.5 44.5q0 18 -11 18q-53 0 -92 35.5t-39 87.5q0 110 56 110q12 0 25.5 -8t13.5 -20q0 -8 -16 -29t-16 -29q0 -67 88 -67q60 0 138 36q92 42 92 95q0 39 40 39
q12 0 28.5 -14.5t16.5 -26.5z" />
    <glyph glyph-name="fraction" unicode="&#x2044;" horiz-adv-x="462" 
d="M403 476q0 -13 -22 -46q-38 -64 -113 -192q-23 -38 -88 -137q-15 -23 -47 -69q-23 -29 -45 -29q-13 0 -23.5 12t-10.5 26q0 13 12 31q47 65 139 196q107 161 124 214q3 8 8 14q9 12 32 12q12 0 23 -10t11 -22z" />
    <glyph glyph-name="currency" unicode="&#xa4;" horiz-adv-x="578" 
d="M571 290q0 -14 -23 -29t-38 -15q-195 0 -248 -10q-12 -1 -36 -6q-14 -29 -15 -63h13q129 0 154 -6t25 -28q0 -24 -56 -28q-33 -2 -121 -1q19 -24 94 -24l90 1q68 0 85 -1q69 -6 69 -30q0 3 -6 -21q-4 -16 -33 -19q-5 -1 -42 -1q-242 0 -290 38q-25 20 -39 55
q-54 -4 -75 -4q-62 0 -63 21q-2 31 44 41q40 6 81 12q1 24 7 46h-2q-17 0 -50 -10t-50 -10q-29 0 -29 23q0 26 32 38q26 7 53 14q29 2 84 13q26 30 69 55q59 35 94 48q50 19 104 19q87 0 87 -39q0 -24 -45 -24q-9 0 -26.5 3.5t-25.5 3.5q-16 0 -38 -7q-50 -17 -104 -45
q29 1 113 7q71 4 113 4q44 0 44 -21z" />
    <glyph glyph-name="guilsinglleft" unicode="&#x2039;" 
d="M330 288q0 -19 -25 -40q-41 -29 -120 -90q-3 -3 -26 -20l-3 -2q13 -5 34 -23.5t32 -22.5q23 -5 67 -17q25 -7 25 -33q0 -13 -7 -25q-9 -15 -23 -15q-9 0 -23.5 5t-22.5 5q-14 0 -27.5 9.5t-25.5 18.5q-18 13 -57 31q-18 10 -55 25q-27 7 -27 27q0 18 16 30q6 4 32 18
q19 10 45 30q21 17 42 35q30 24 59 49q46 37 59 37q31 0 31 -32z" />
    <glyph glyph-name="guilsinglright" unicode="&#x203a;" horiz-adv-x="387" 
d="M360 210q0 -16 -23 -33q-19 -11 -37 -22q-54 -35 -115 -84q-25 -21 -49 -41q-37 -30 -50 -30q-31 0 -31 38q0 12 98 86q63 48 81 64q-61 12 -115 46q-16 11 -49 29q-24 12 -24 37q0 11 11 21t21 10t26 -9q21 -12 25 -14q11 -4 69 -36q39 -22 75 -24q44 -2 53 -4
q34 -8 34 -34z" />
    <glyph glyph-name="fi" unicode="&#xfb01;" horiz-adv-x="521" 
d="M453 406q0 -18 -12 -52q-14 -40 -27 -40q-45 0 -45 52q0 67 39 67q45 0 45 -27zM526 197q0 -29 -62 -36l-13 -2q-5 -100 -15 -131q-9 -26 -34 -26q-18 0 -31 16.5t-13 35.5q0 4 8 55q4 21 5 43q-64 -5 -119 -5q-38 0 -38 -16q0 -10 15 -54t15 -67q0 -30 -28 -30
q-22 0 -45 56q-13 29 -36 87q-4 12 -9.5 14t-22.5 2q-83 0 -83 36q0 25 19 32q6 2 35 4q18 1 18 11q0 12 -4.5 42t-4.5 46q0 69 41 128q45 66 110 66q38 0 61 -42q19 -35 19 -75q0 -106 -82 -147q-16 -8 -16 -14q0 -17 56 -17q27 0 78.5 8.5t78.5 8.5t56 -6q41 -8 41 -23z
M252 379q0 54 -26 54q-37 0 -57 -51q-14 -37 -14 -82q0 -26 16 -26q23 0 53 42q28 39 28 63z" />
    <glyph glyph-name="fl" unicode="&#xfb02;" horiz-adv-x="521" 
d="M526 197q0 -25 -52 -34v-16q1 -24 0 -67v-66q0 -31 -28 -31q-48 0 -48 77q0 26 4 95q-83 -8 -150 -8q-38 0 -38 -16q0 -10 15 -54t15 -67q0 -30 -28 -30q-22 0 -45 56q-13 29 -36 87q-4 12 -9.5 14t-22.5 2q-83 0 -83 36q0 25 19 32q6 2 35 4q18 1 18 11q0 12 -4.5 42
t-4.5 46q0 69 41 128q45 66 110 66q38 0 61 -42q19 -35 19 -75q0 -106 -82 -147q-16 -8 -16 -14q0 -17 56 -17q25 0 66 6q51 9 66 10q0 24 -4 72.5t-4 72.5q0 55 28 55q14 0 29 -9t15 -22q0 -22 5 -171q53 -9 53 -26zM252 379q0 54 -26 54q-37 0 -57 -51q-14 -37 -14 -82
q0 -26 16 -26q23 0 53 42q28 39 28 63z" />
    <glyph glyph-name="daggerdbl" unicode="&#x2021;" horiz-adv-x="200" 
d="M121 215q2 -13 14 -44q4 -9 4 -14q0 -24 -29 -24q-24 0 -38.5 16.5t-14.5 39.5v21h-14q-15 -1 -31 7q-19 9 -20 24q-1 23 40 24q13 1 29 3q1 13 3 32h-14q-14 0 -28.5 10.5t-14.5 26.5q0 27 36 27q12 0 26 2q3 27 7 44q11 38 41 38q15 0 24 -15q7 -11 7 -24q0 -5 -10 -31
l-1 -1h9q48 0 48 -29q0 -16 -15 -29.5t-30 -13.5h-23q-2 -16 -3 -29q25 3 45 3q42 -1 42 -24q0 -15 -17 -26t-33 -11.5t-39 -2.5z" />
    <glyph glyph-name="periodcentered" unicode="&#xb7;" horiz-adv-x="228" 
d="M160 156q0 -12 -16.5 -28.5t-28.5 -16.5q-21 0 -33 19q-11 15 -11 36q0 18 10 39.5t26 20.5q53 -5 53 -70z" />
    <glyph glyph-name="quotesinglbase" unicode="&#x201a;" horiz-adv-x="311" 
d="M264 -26q0 -33 -52.5 -91t-84.5 -58q-29 0 -29 42q0 29 39.5 58.5t39.5 52.5q0 30 -34 30q-3 0 -22.5 -12t-36.5 -12q-40 0 -40 39q0 25 42 47q36 19 63 19q51 0 83 -32t32 -83z" />
    <glyph glyph-name="quotedblbase" unicode="&#x201e;" horiz-adv-x="628" 
d="M589 10q0 -59 -57.5 -114.5t-116.5 -55.5q-26 0 -26 41q0 20 31 32q54 22 58 24q32 20 32 57q0 50 -40 50q-18 0 -47.5 -24t-35.5 -24q-20 0 -34 13.5t-14 32.5q0 43 68 59q24 8 48 15q30 9 49 9q37 0 62 -40q23 -36 23 -75zM264 4q0 -33 -52.5 -91t-84.5 -58
q-29 0 -29 42q0 29 39.5 58.5t39.5 52.5q0 30 -34 30q-3 0 -22.5 -12t-36.5 -12q-40 0 -40 40q0 24 42 46q36 19 63 19q51 0 83 -32t32 -83z" />
    <glyph glyph-name="perthousand" unicode="&#x2030;" horiz-adv-x="1077" 
d="M1047 138q0 -84 -44 -136q-47 -57 -129 -57q-48 0 -76.5 28t-28.5 76q0 63 47 118.5t110 55.5q8 0 17 -4t12 -4q6 0 16 3t16 3q60 0 60 -83zM749 88q0 -56 -77 -107q-70 -48 -129 -48q-33 0 -44.5 12t-11.5 44q0 31 74.5 106.5t104.5 75.5q17 0 50 -33t33 -50zM733 460
q0 -48 -95 -147q-30 -32 -175 -167q-94 -87 -94 -108q0 -12 -11.5 -22.5t-24.5 -10.5q-15 0 -28.5 15t-13.5 30q0 34 56 87q77 71 155 143q128 119 128 132q0 14 -10 14q-3 0 -104 -44q-106 -47 -130 -53q-34 -3 -68 -7q-45 -7 -52 -30q-14 -45 -54 -79t-85 -34
q-43 0 -74 32.5t-31 76.5q0 29 41 67t70 38q18 0 31.5 8t25.5 8q18 0 53.5 -9t53.5 -9q62 0 192 55q35 18 70 35q46 23 73 23q28 0 59 -10q42 -13 42 -34zM924 114q0 18 -24 18q-19 0 -33.5 -23t-14.5 -42v-14q0 -30 34 -30q27 0 27 12q0 3 -2 9.5t-2 10.5q0 11 7.5 31.5
t7.5 27.5zM664 65q0 11 -10 11q-9 0 -34 -18.5t-25 -24.5q0 -4 10 -4q17 0 36 10q23 11 23 26zM182 286q0 12 -6 12q-3 0 -8 -2t-8 -2q-6 0 -15.5 9.5t-17.5 9.5q-12 0 -19 -12.5t-7 -24.5t11.5 -20t24.5 -8q16 0 30.5 11t14.5 27z" />
    <glyph glyph-name="Acircumflex" unicode="&#xc2;" horiz-adv-x="461" 
d="M331 461q0 -35 -40 -35q-56 0 -56 57q0 14 1.5 40t1.5 39q1 2 1 1q-7 0 -59 -38q-47 -34 -61 -46t-34 -12q-41 0 -41 33q0 17 27 31q66 34 153 97q15 13 30 25q19 13 37 13q37 0 37 -26q0 -15 -5.5 -46.5t-5.5 -47.5q0 -48 7 -60.5t7 -24.5zM475 137q0 -25 -90 -25
q-31 0 -31 -25q0 -16 17 -43.5t17 -47.5q0 -15 -13.5 -29.5t-28.5 -14.5q-13 0 -22 28q-7 22 -7 38q0 13 -15 47t-15 41t-35 10q-21 0 -42 1q-7 0 -30 3q-18 1 -29 1q-40 0 -45 -22l-27 -87q-7 -20 -42 -20q-23 0 -23 29q0 23 53 113q56 95 63 132q2 13 17 62q11 37 11 63
q0 61 16 61q10 0 30 -13q85 -59 105 -149q7 -34 14 -67q14 -55 25 -60q4 -2 71 -6q56 -4 56 -20zM278 199q0 25 -23 82q-26 62 -44 62q-6 0 -10 -30q-3 -18 -5 -37q-3 -9 -22 -43q-16 -30 -16 -43q0 -23 89 -23q31 0 31 32z" />
    <glyph glyph-name="Ecircumflex" unicode="&#xca;" horiz-adv-x="493" 
d="M424 458q0 -36 -40 -36q-56 0 -56 58q0 13 2 39.5t2 38.5q1 2 -2.5 2t-56.5 -39q-46 -33 -60 -45t-35 -12q-40 0 -40 32q0 18 26 31q67 34 153 98q16 12 32.5 24.5t34.5 12.5q37 0 37 -26q0 -15 -5 -46.5t-5 -47.5q0 -48 6.5 -60.5t6.5 -23.5zM493 373q0 -26 -63 -32
q-53 1 -159 -10q-11 -2 -57 -17q-36 -12 -56 -12q-16 0 -22 -22q-13 -53 -13 -83q0 -7 6 -7q3 0 11 3q32 10 97 13q21 2 62 16.5t62 14.5q13 0 27 -7.5t14 -19.5q0 -14 -21 -29.5t-36 -17.5q-36 -2 -108 -12q-57 -14 -71 -14q-10 0 -21 8t-17 8q-16 0 -16 -22q0 -27 61 -42
q43 -11 82 -11q90 0 104 19q15 24 25 24q14 0 27 -27q11 -23 11 -39q0 -28 -28 -35q-78 -20 -135 -20q-35 0 -94 20.5t-82 43.5q-34 33 -34 75q0 16 8 46.5t8 46.5q0 40 9 85q13 64 37 64q5 0 17.5 -9t29.5 -9q13 0 36 8l36 12q54 14 119 14h64q41 0 47 -1q33 -4 33 -23z
" />
    <glyph glyph-name="Aacute" unicode="&#xc1;" horiz-adv-x="461" 
d="M367 705q0 -12 -47 -57l-60 -56q-28 -40 -57 -79q-41 -54 -70 -54q-44 0 -44 34q0 32 111 129q27 23 48 44.5t41 41.5q29 29 46 29q32 0 32 -32zM475 137q0 -25 -90 -25q-31 0 -31 -25q0 -16 17 -43.5t17 -47.5q0 -15 -13.5 -29.5t-28.5 -14.5q-13 0 -22 28q-7 22 -7 38
q0 13 -15 47t-15 41t-35 10q-21 0 -42 1q-7 0 -30 3q-18 1 -29 1q-40 0 -45 -22l-27 -87q-7 -20 -42 -20q-23 0 -23 29q0 23 53 113q56 95 63 132q2 13 17 62q11 37 11 63q0 61 16 61q10 0 30 -13q85 -59 105 -149q7 -34 14 -67q14 -55 25 -60q4 -2 71 -6q56 -4 56 -20z
M278 199q0 25 -23 82q-26 62 -44 62q-6 0 -10 -30q-3 -18 -5 -37q-3 -9 -22 -43q-16 -30 -16 -43q0 -23 89 -23q31 0 31 32z" />
    <glyph glyph-name="Edieresis" unicode="&#xcb;" horiz-adv-x="493" 
d="M369 487q0 -18 -12 -31t-29 -13q-54 0 -54 71q0 64 44 64q13 0 22 -15t9 -29q0 -7 10 -20.5t10 -26.5zM211 548q0 -119 -40 -119t-40 93q0 65 42 65q38 0 38 -39zM493 373q0 -26 -63 -32q-53 1 -159 -10q-11 -2 -57 -17q-36 -12 -56 -12q-16 0 -22 -22q-13 -53 -13 -83
q0 -7 6 -7q3 0 11 3q32 10 97 13q21 2 62 16.5t62 14.5q13 0 27 -7.5t14 -19.5q0 -14 -21 -29.5t-36 -17.5q-36 -2 -108 -12q-57 -14 -71 -14q-10 0 -21 8t-17 8q-16 0 -16 -22q0 -27 61 -42q43 -11 82 -11q90 0 104 19q15 24 25 24q14 0 27 -27q11 -23 11 -39
q0 -28 -28 -35q-78 -20 -135 -20q-35 0 -94 20.5t-82 43.5q-34 33 -34 75q0 16 8 46.5t8 46.5q0 40 9 85q13 64 37 64q5 0 17.5 -9t29.5 -9q13 0 36 8l36 12q54 14 119 14h64q41 0 47 -1q33 -4 33 -23z" />
    <glyph glyph-name="Egrave" unicode="&#xc8;" horiz-adv-x="493" 
d="M371 495q0 -23 -22.5 -50t-44.5 -27q-16 0 -18 24q-3 30 -10 37q-19 21 -65 58q-67 54 -70 57q-26 23 -26 52q0 33 40 33q27 0 111 -81q31 -24 61 -49q44 -37 44 -54zM493 373q0 -26 -63 -32q-53 1 -159 -10q-11 -2 -57 -17q-36 -12 -56 -12q-16 0 -22 -22
q-13 -53 -13 -83q0 -7 6 -7q3 0 11 3q32 10 97 13q21 2 62 16.5t62 14.5q13 0 27 -7.5t14 -19.5q0 -14 -21 -29.5t-36 -17.5q-36 -2 -108 -12q-57 -14 -71 -14q-10 0 -21 8t-17 8q-16 0 -16 -22q0 -27 61 -42q43 -11 82 -11q90 0 104 19q15 24 25 24q14 0 27 -27
q11 -23 11 -39q0 -28 -28 -35q-78 -20 -135 -20q-35 0 -94 20.5t-82 43.5q-34 33 -34 75q0 16 8 46.5t8 46.5q0 40 9 85q13 64 37 64q5 0 17.5 -9t29.5 -9q13 0 36 8l36 12q54 14 119 14h64q41 0 47 -1q33 -4 33 -23z" />
    <glyph glyph-name="Iacute" unicode="&#xcd;" horiz-adv-x="198" 
d="M312 687q0 -11 -47 -56q-30 -28 -60 -57q-28 -39 -57 -78q-41 -55 -70 -55q-44 0 -44 34q0 33 111 129q27 23 48 44.5t41 42.5q29 28 46 28q32 0 32 -32zM163 38q0 -13 -15 -24.5t-29 -11.5q-26 0 -42 44q-13 35 -13 65q0 38 -4 113.5t-4 112.5q0 72 35 72q21 0 26 -27
q2 -9 2 -43q0 -176 18 -220q26 -61 26 -81z" />
    <glyph glyph-name="Icircumflex" unicode="&#xce;" horiz-adv-x="198" 
d="M239 430q0 -36 -40 -36q-56 0 -56 58q0 13 1.5 39.5t1.5 39.5q1 1 -2 1t-56 -38q-47 -34 -60.5 -46t-34.5 -12q-41 0 -41 33q0 17 27 31q67 34 153 97q15 12 32 24.5t35 12.5q37 0 37 -26q0 -15 -5.5 -46.5t-5.5 -47.5q0 -48 8 -62q6 -10 6 -22zM163 38q0 -13 -15 -24.5
t-29 -11.5q-26 0 -42 44q-13 35 -13 65q0 38 -4 113.5t-4 112.5q0 72 35 72q21 0 26 -27q2 -9 2 -43q0 -176 18 -220q26 -61 26 -81z" />
    <glyph glyph-name="Idieresis" unicode="&#xcf;" horiz-adv-x="198" 
d="M198 484q0 -17 -12 -30t-30 -13q-53 0 -53 71q0 64 43 64q13 0 22.5 -15t9.5 -29q0 -8 10 -21t10 -27zM39 545q0 -119 -39 -119q-41 0 -41 94q0 65 43 65q37 0 37 -40zM163 38q0 -13 -15 -24.5t-29 -11.5q-26 0 -42 44q-13 35 -13 65q0 38 -4 113.5t-4 112.5q0 72 35 72
q21 0 26 -27q2 -9 2 -43q0 -176 18 -220q26 -61 26 -81z" />
    <glyph glyph-name="Igrave" unicode="&#xcc;" horiz-adv-x="198" 
d="M168 513q0 -23 -22.5 -50t-44.5 -27q-16 0 -19 24q-3 30 -9 37q-19 21 -65 59q-67 54 -70 56q-26 23 -26 52q0 34 40 34q27 0 111 -82q30 -24 61 -48q44 -37 44 -55zM163 38q0 -13 -15 -24.5t-29 -11.5q-26 0 -42 44q-13 35 -13 65q0 38 -4 113.5t-4 112.5q0 72 35 72
q21 0 26 -27q2 -9 2 -43q0 -176 18 -220q26 -61 26 -81z" />
    <glyph glyph-name="Oacute" unicode="&#xd3;" horiz-adv-x="393" 
d="M401 617q0 -11 -46 -56q-31 -28 -61 -57l-56 -78q-41 -55 -71 -55q-43 0 -43 34q0 33 111 129q27 24 48 45t40 42q30 28 47 28q31 0 31 -32zM336 202q0 -106 -39 -146q-35 -37 -59 -50q-30 -16 -74 -16q-53 0 -84 32t-31 85q0 87 73 165q71 75 115 75q27 0 59.5 -25
t36 -50.5t3.5 -69.5zM273 210q0 52 -47 52q-38 0 -73 -56q-33 -52 -33 -93q0 -31 27 -40q12 -3 53 -3q33 0 55 56q18 45 18 84z" />
    <glyph glyph-name="Ocircumflex" unicode="&#xd4;" horiz-adv-x="393" 
d="M372 412q0 -35 -40 -35q-56 0 -56 57q0 14 1.5 40t1.5 39q1 2 1 1q-6 0 -59 -38q-47 -34 -60.5 -46t-34.5 -12q-41 0 -41 33q0 18 27 31q67 34 153 97q15 13 32 25.5t35 12.5q37 0 37 -26q0 -15 -5.5 -46.5t-5.5 -47.5q0 -48 7 -60.5t7 -24.5zM336 202q0 -106 -39 -146
q-35 -37 -59 -50q-30 -16 -74 -16q-53 0 -84 32t-31 85q0 87 73 165q71 75 115 75q27 0 59.5 -25t36 -50.5t3.5 -69.5zM273 210q0 52 -47 52q-38 0 -73 -56q-33 -52 -33 -93q0 -31 27 -40q12 -3 53 -3q33 0 55 56q18 45 18 84z" />
    <glyph glyph-name="Ograve" unicode="&#xd2;" horiz-adv-x="393" 
d="M309 444q0 -23 -22.5 -50.5t-44.5 -27.5q-16 0 -19 24q-3 31 -9 38q-19 21 -65 58q-67 54 -70 57q-26 22 -26 51q0 34 40 34q27 0 111 -81q30 -25 61 -49q44 -37 44 -54zM336 202q0 -106 -39 -146q-35 -37 -59 -50q-30 -16 -74 -16q-53 0 -84 32t-31 85q0 87 73 165
q71 75 115 75q27 0 59.5 -25t36 -50.5t3.5 -69.5zM273 210q0 52 -47 52q-38 0 -73 -56q-33 -52 -33 -93q0 -31 27 -40q12 -3 53 -3q33 0 55 56q18 45 18 84z" />
    <glyph glyph-name="Uacute" unicode="&#xda;" horiz-adv-x="496" 
d="M404 634q0 -12 -47 -57l-60 -56q-29 -39 -57 -79q-41 -54 -70 -54q-44 0 -44 34q0 32 111 129q27 23 48 44.5t41 42.5q29 28 46 28q32 0 32 -32zM446 268q0 -52 -17 -116q-20 -74 -51 -104q-57 -58 -184 -58q-145 0 -145 213q0 172 50 172q35 0 35 -29q0 9 -8 -55
q-6 -46 -6 -106q0 -129 84 -129q83 0 130 55q44 51 44 137q0 29 -13.5 60t-13.5 45q0 50 35 50q8 0 20 -12q40 -40 40 -123z" />
    <glyph glyph-name="Ucircumflex" unicode="&#xdb;" horiz-adv-x="496" 
d="M341 410q0 -35 -40 -35q-56 0 -56 57q0 13 2 39.5t2 39.5q1 2 1 1q-7 0 -60 -38q-46 -34 -60 -46t-35 -12q-40 0 -40 33q0 17 26 31q67 34 153 97q16 12 32.5 25t34.5 13q37 0 37 -26q0 -16 -5 -47t-5 -47q0 -49 6.5 -61t6.5 -24zM446 268q0 -52 -17 -116
q-20 -74 -51 -104q-57 -58 -184 -58q-145 0 -145 213q0 172 50 172q35 0 35 -29q0 9 -8 -55q-6 -46 -6 -106q0 -129 84 -129q83 0 130 55q44 51 44 137q0 29 -13.5 60t-13.5 45q0 50 35 50q8 0 20 -12q40 -40 40 -123z" />
    <glyph glyph-name="Ugrave" unicode="&#xd9;" horiz-adv-x="496" 
d="M333 453q0 -23 -23 -50t-45 -27q-16 0 -18 23q-3 31 -10 38q-19 21 -65 58q-66 54 -70 57q-25 22 -25 52q0 33 39 33q28 0 111 -81q31 -24 61 -49q45 -37 45 -54zM446 268q0 -52 -17 -116q-20 -74 -51 -104q-57 -58 -184 -58q-145 0 -145 213q0 172 50 172q35 0 35 -29
q0 9 -8 -55q-6 -46 -6 -106q0 -129 84 -129q83 0 130 55q44 51 44 137q0 29 -13.5 60t-13.5 45q0 50 35 50q8 0 20 -12q40 -40 40 -123z" />
    <glyph glyph-name="dotlessi" unicode="&#x131;" horiz-adv-x="192" 
d="M145 179q0 -25 -5 -77q-5 -57 -11 -74q-8 -26 -33 -26q-18 0 -31 16.5t-13 35.5q0 4 8 55q6 35 6 76q0 33 38 33q41 0 41 -39z" />
    <glyph glyph-name="circumflex" unicode="&#x2c6;" horiz-adv-x="328" 
d="M311 342q0 -36 -40 -36q-56 0 -56 58q0 13 1.5 39.5t1.5 38.5q1 2 -2.5 2t-55.5 -38q-47 -34 -60.5 -46t-34.5 -12q-41 0 -41 33q0 17 27 31q66 34 153 97l30 24q19 13 37 13q37 0 37 -26q0 -15 -5.5 -46.5t-5.5 -47.5q0 -48 8 -62q6 -10 6 -22z" />
    <glyph glyph-name="tilde" unicode="&#x2dc;" horiz-adv-x="423" 
d="M412 439q0 -26 -11 -34q-15 -8 -28.5 -17t-25.5 -19q-15 -11 -29 -14l-50 -16q-30 -9 -51 -9q-20 0 -35 13q-18 14 -18 34q0 1 8 27q-9 -4 -51 -34q-54 -40 -74 -40q-34 0 -34 33q0 26 87 74l52 32q36 20 54 20q21 0 32 -19q8 -15 8 -32q0 -7 -4 -18.5t-4 -17.5
q0 -1 1 -1q23 0 55 15t43 32q20 32 38 32q37 0 37 -41z" />
    <glyph glyph-name="macron" unicode="&#xaf;" horiz-adv-x="339" 
d="M305 407q0 -19 -19 -36.5t-38 -17.5q-27 0 -82 -5t-83 -5q-18 0 -36.5 14t-18.5 32q0 20 12 25q6 3 31 3q29 0 85.5 11t85.5 11q63 0 63 -32z" />
    <glyph glyph-name="breve" unicode="&#x2d8;" horiz-adv-x="315" 
d="M314 431q-2 -13 -27 -38q-20 -20 -37 -32q-24 -15 -60 -27q-40 -12 -67 -9q-50 7 -95 40q-32 24 -27 58q0 5 3 13.5t3 13.5q1 11 13 20.5t24 9.5q23 0 26 -32q0 -5 1 -14q7 -26 56 -32q63 -8 118 58q14 17 31 17t28.5 -14t9.5 -32z" />
    <glyph glyph-name="dotaccent" unicode="&#x2d9;" horiz-adv-x="228" 
d="M151 381q0 -11 -16.5 -27.5t-29.5 -16.5q-20 0 -31.5 17t-11.5 37q0 19 9 38q10 24 27 22q53 -4 53 -70z" />
    <glyph glyph-name="ring" unicode="&#x2da;" horiz-adv-x="287" 
d="M250 442q0 -44 -33 -75q-35 -34 -92 -34q-34 0 -63.5 19t-29.5 43q0 31 44 61t89 30q6 0 12.5 -2t8.5 -2q4 0 11 1.5t11 1.5q42 0 42 -43zM160 419q0 9 -17 9q-29 0 -29 -23v-7q0 -15 23 -15q19 0 19 6q0 2 -1 5t-1 5q0 6 3 11.5t3 8.5z" />
    <glyph glyph-name="cedilla" unicode="&#xb8;" horiz-adv-x="256" 
d="M195 -56q0 -125 -88 -185q-33 -23 -65 -23q-35 0 -35 30q0 20 20 32q18 9 37 17q32 16 44 31q18 24 18 70q0 54 -16 80q-6 9 -30 27q-16 12 -16 34q0 30 30 30q46 0 76 -51q25 -43 25 -92z" />
    <glyph glyph-name="hungarumlaut" unicode="&#x2dd;" horiz-adv-x="322" 
d="M267 432q-12 -29 -23 -57q-19 -37 -42 -37q-6 0 -13 3q-18 7 -18 32q0 9 3 17q8 18 14 27.5t13.5 28t15.5 53.5q0 16 6 45q6 17 21 17q7 0 15 -4q32 -13 32 -45q0 -21 -24 -80zM168 492q-7 -17 -37.5 -72t-40.5 -66q-14 -16 -29 -16q-9 0 -20 4q-17 7 -17 40q0 17 4 27
q2 6 30.5 42t38.5 60q2 4 4.5 13.5t4.5 14.5q7 18 22 18q17 0 30 -16.5t13 -34.5q0 -8 -3 -14z" />
    <glyph glyph-name="ogonek" unicode="&#x2db;" horiz-adv-x="344" 
d="M290 -121q-68 -63 -141 -63q-95 0 -95 153q0 99 43 99q38 0 38 -36q0 -12 -4.5 -37.5t-4.5 -38.5q0 -66 32 -66q17 0 45 19q52 36 83 36q26 0 26 -23q0 -22 -22 -43z" />
    <glyph glyph-name="caron" unicode="&#x2c7;" horiz-adv-x="328" 
d="M311 472q0 -17 -27 -31q-67 -34 -153 -97q-15 -12 -32 -25t-35 -13q-37 0 -37 26q0 16 5.5 47t5.5 47q0 48 -8 62q-6 11 -6 23q0 35 40 35q56 0 56 -57q0 -13 -2 -39.5t-2 -39.5q0 -2 -1 -1q7 0 60 38q47 34 60.5 46t34.5 12q41 0 41 -33z" />
    <glyph glyph-name="Lslash" unicode="&#x141;" horiz-adv-x="380" 
d="M372 82q0 -20 -12 -41t-30.5 -21t-54.5 -5t-55 -5q-104 0 -141 30.5t-37 96.5q0 13 2 28l1 9q-16 -1 -30 -1q-19 0 -37 14t-18 32q0 20 12 25q6 3 31 3q22 0 52 5q8 61 15 107q4 28 29 28q32 0 32 -37q0 -32 -4 -85q26 4 47 4q63 0 63 -32q0 -19 -19 -36.5t-38 -17.5
q-24 0 -60 -3q-1 -17 -1 -32q0 -67 76 -67q89 0 133 14q15 5 24 5q20 0 20 -18z" />
    <glyph glyph-name="lslash" unicode="&#x142;" horiz-adv-x="193" 
d="M233 217q0 -18 -19.5 -35.5t-37.5 -17.5t-38 -1v-16v-67v-66q0 -31 -28 -31q-48 0 -48 77q0 25 4 97q-33 -3 -56 -3q-18 0 -36.5 14t-18.5 32q0 20 12 25q6 2 32 2t69 8q-1 20 -5 68q-3 43 -3 67q0 55 28 55q14 0 28.5 -9t14.5 -22q0 -38 5 -147q18 2 33 2q64 0 64 -32z
" />
    <glyph glyph-name="Scaron" unicode="&#x160;" horiz-adv-x="452" 
d="M430 594q0 -17 -26 -31q-67 -34 -154 -97q-15 -12 -30 -25q-19 -13 -36 -13q-38 0 -38 26q0 16 5.5 47t5.5 47q0 49 -6.5 61t-6.5 24q0 35 40 35q56 0 56 -57q0 -13 -2 -39.5t-2 -39.5q-1 -2 -1 -1q7 0 60 38q46 34 60 46t34 12q41 0 41 -33zM424 128q0 -31 -26 -62
q-22 -25 -53 -41q-26 -13 -73 -29q-52 -17 -74 -17q-25 0 -52.5 24.5t-27.5 48.5q0 13 11.5 21.5t24.5 8.5q9 0 33.5 -12t37.5 -12q22 0 73.5 24.5t51.5 41.5q0 22 -81 45q-131 36 -152 44q-82 34 -82 81q0 55 80 92q66 29 128 29q33 0 69 -24q40 -26 40 -57q0 -21 -19 -45
t-40 -24q-17 0 -17 15q0 7 3.5 19.5t3.5 19.5q0 33 -44 33q-29 0 -72 -15q-53 -18 -53 -41q0 -17 81 -40q117 -32 149 -46q80 -35 80 -82z" />
    <glyph glyph-name="scaron" unicode="&#x161;" horiz-adv-x="363" 
d="M427 487q0 -17 -27 -31q-66 -34 -153 -97q-15 -12 -30 -25q-19 -13 -37 -13q-37 0 -37 26q0 15 5.5 46.5t5.5 47.5q0 48 -8 62q-6 11 -6 23q0 35 40 35q56 0 56 -57q0 -14 -1.5 -40t-1.5 -39q-1 -2 -1 -1q7 0 59 38q47 34 60.5 46t34.5 12q41 0 41 -33zM312 240
q0 -32 -21 -52q-12 -11 -39 -22q-21 -9 -21 -16q0 -1 29.5 -22t29.5 -49q0 -37 -55 -80t-94 -43q-27 0 -58 20.5t-31 46.5q0 24 30 24q11 0 34 -7t35 -7q10 0 34 10.5t24 17.5q0 10 -35 19q-42 11 -45 13q-22 14 -40 38q-21 28 -21 51q0 34 59 68q54 31 92 31q93 0 93 -41z
" />
    <glyph glyph-name="Zcaron" unicode="&#x17d;" horiz-adv-x="583" 
d="M450 574q0 -17 -27 -31q-67 -34 -153 -97q-15 -12 -32 -25t-35 -13q-37 0 -37 26q0 16 5.5 47t5.5 47q0 48 -8 62q-6 11 -6 23q0 35 40 35q56 0 56 -57q0 -13 -2 -39.5t-2 -39.5q0 -2 0 -1q6 0 59 38q47 34 60.5 46t34.5 12q41 0 41 -33zM569 58q0 -38 -60 -44
q-11 -1 -125 -7q-63 -3 -188 -7h-32q-105 -1 -105 50q0 36 60 92q14 14 111 92q59 49 59 66q0 8 -14 8q-39 0 -93 -15q-46 -13 -91 -27q-11 -3 -20 -3q-36 0 -36 23q0 35 25.5 45.5t122 31t120.5 20.5q105 0 105 -34q0 -23 -41 -73q-33 -40 -62 -66q-39 -30 -77 -61
q-52 -42 -66 -68q48 -4 132 -4q49 0 72 3q13 1 72 9q44 6 71 6q60 0 60 -37z" />
    <glyph glyph-name="zcaron" unicode="&#x17e;" horiz-adv-x="557" 
d="M444 489q0 -18 -26 -31q-67 -34 -153 -98q-16 -12 -31 -24q-18 -13 -36 -13q-37 0 -37 26q0 15 5 46.5t5 47.5q0 48 -7 62q-6 11 -6 22q0 36 40 36q56 0 56 -58q0 -13 -2 -39.5t-2 -38.5q-1 -2 2.5 -2t56.5 39q46 33 60 45t35 12q40 0 40 -32zM546 29q0 -37 -52 -37
q-14 0 -42 9t-45 9q-24 0 -69.5 -9t-69.5 -9q-47 0 -91 17q-58 23 -58 62q0 30 23 55q12 13 42 34q22 15 22 22q0 4 -7 4q-25 0 -71 -16t-68 -16q-15 0 -30.5 10t-15.5 24q0 16 57 37q41 15 70 21q65 5 133 12q14 12 28 12q45 0 45 -32q0 -38 -45 -68q-19 -12 -50 -38
q-38 -34 -38 -45q0 -18 70 -18q24 0 71.5 4t71.5 4q32 0 69 -10q50 -14 50 -38z" />
    <glyph glyph-name="brokenbar" unicode="&#xa6;" horiz-adv-x="192" 
d="M157 490q0 -27 -12 -100q-14 -88 -27 -88q-45 0 -45 53q0 161 39 161q45 0 45 -26zM145 179q0 -25 -5 -77q-5 -57 -11 -74q-8 -26 -33 -26q-18 0 -31 16.5t-13 35.5q0 4 8 55q6 35 6 76q0 33 38 33q41 0 41 -39z" />
    <glyph glyph-name="Eth" unicode="&#xd0;" horiz-adv-x="462" 
d="M427 213q0 -54 -48 -98q-20 -18 -93 -65q-128 -81 -155 -81q-44 0 -44 38q0 7 17 36.5t17 56.5q0 18 -3 40q-37 -3 -62 -3q-18 0 -36.5 14t-18.5 32q0 20 12 25q7 2 31.5 2t58.5 6l-2 16t-8 28.5t-7 28.5q0 2 1 5t1 4q0 3 -4 3q-12 0 -24.5 -18t-21.5 -18t-16.5 13
t-7.5 22q0 20 44 56q12 10 13 31q1 17 12 17q36 0 92 -8q60 -9 87 -20q165 -68 165 -163zM367 217q0 34 -27 50q-27 12 -54 23q-85 44 -109 44q-29 0 -29 -21q0 -10 11 -34q8 -20 14 -50q23 3 42 3q64 0 64 -32q0 -18 -19.5 -35.5t-38 -17.5t-40.5 -2q-1 -20 -1 -41
q3 -26 22 -26q44 0 104.5 48.5t60.5 90.5z" />
    <glyph glyph-name="eth" unicode="&#xf0;" horiz-adv-x="591" 
d="M626 395q0 -20 -29.5 -38t-58.5 -18q-11 -59 -45 -116q-23 -39 -57 -78q-28 -32 -28 -33q0 -20 46 -33q35 -9 61 -9q15 0 31.5 -10t16.5 -24q0 -11 -30 -20q-24 -7 -40 -7q-53 0 -106 27.5t-50 27.5q-4 0 -74 -35.5t-111 -35.5q-34 0 -69 21q-38 25 -38 58q0 21 13 49
q41 86 146 86q67 0 67 -38q0 -25 -36 -36l-68 -14q-37 -9 -37 -29q0 -24 32 -24q31 0 89.5 27.5t77.5 51.5q-20 44 -20 139q0 18 4 45h-28q-28 0 -56.5 14t-28.5 33q0 21 19 26q10 3 48 3q28 0 62 3q44 164 119 164q41 0 67 -49q20 -39 26 -95q85 -1 85 -33zM485 426
q-11 67 -33 67q-17 0 -42 -75q47 6 75 8zM481 338q-15 -1 -92 -5q-4 -28 -4 -54q0 -47 11 -88q58 51 85 147z" />
    <glyph glyph-name="Yacute" unicode="&#xdd;" horiz-adv-x="509" 
d="M445 639q0 -12 -46 -57q-31 -28 -61 -56q-28 -40 -56 -79q-41 -54 -71 -54q-43 0 -43 33t111 129q27 24 48 45t40 42q30 28 47 28q31 0 31 -31zM494 423q0 -26 -38 -71q-34 -40 -61 -56q-63 -27 -133 -60q-12 -12 -24 -56q-12 -40 -12 -61q0 -41 18 -53.5t18 -37.5
q0 -13 -14.5 -21.5t-29.5 -8.5q-35 0 -51 40q-12 29 -12 69q0 15 7.5 44.5t7.5 44.5q0 18 -11 18q-53 0 -92 35.5t-39 87.5q0 110 56 110q12 0 25.5 -8t13.5 -20q0 -8 -16 -29t-16 -29q0 -67 88 -67q60 0 138 36q92 42 92 95q0 39 40 39q12 0 28.5 -14.5t16.5 -26.5z" />
    <glyph glyph-name="Thorn" unicode="&#xde;" horiz-adv-x="515" 
d="M490 261q0 -27 -41 -65q-33 -32 -64 -48q-79 -40 -153 -50q-26 -3 -31 -8t-5 -31q0 -23 1.5 -24.5t1.5 -24.5q0 -15 -12.5 -33t-27.5 -18q-27 0 -44 83q-6 25 -16 76l-1 5q-6 36 -9 65q-4 45 -12 92q-5 24 -17.5 71.5t-16.5 71.5q-2 11 -2 21q0 39 28 39q36 0 40 -24
q8 -40 27 -131q34 16 92 16q73 0 190 -35q72 -22 72 -48zM379 237q0 30 -155 30h-6q-53 0 -64 -23q3 -15 5 -27l2 -11q23 -51 30 -51q3 0 10.5 8.5t55.5 17.5q60 11 80 18q42 15 42 38z" />
    <glyph glyph-name="thorn" unicode="&#xfe;" horiz-adv-x="399" 
d="M371 129q0 -54 -29 -100q-33 -53 -84 -53q-25 0 -51 8t-31 8q-10 0 -10 -43q0 -16 2 -48t2 -48q0 -20 -15 -39.5t-34 -19.5q-22 0 -32 33q-8 23 -8 52q0 43 -6 116q-6 84 -14 110q-5 18 -5 30q0 7 1 13q-7 51 -14 65q-26 52 -55 125q-2 9 5.5 21.5t17.5 13.5q18 3 43 -25
q20 -24 29 -45q8 -28 17 -57q15 -35 41 -31q18 2 30 2q30 8 61 8q139 0 139 -96zM299 113q0 24 -10.5 31t-33.5 7q-105 0 -105 -44q0 -57 80 -57q69 0 69 63z" />
    <glyph glyph-name="minus" unicode="&#x2212;" horiz-adv-x="532" 
d="M489 209q0 -19 -20 -25q-10 -2 -50 -2q-47 0 -138.5 -11t-137.5 -11q-103 0 -103 32q0 18 31 35.5t62 17.5q44 0 133 5t133 5q30 0 60 -13.5t30 -32.5z" />
    <glyph glyph-name="onesuperior" unicode="&#xb9;" horiz-adv-x="234" 
d="M164 346q0 -12 -12 -28q-13 -21 -31 -21q-31 0 -27 42q1 12 1 22t-7 51q-8 47 -16.5 57t-8.5 21q0 22 24 22q30 0 43 -30q10 -24 21 -68q13 -48 13 -68z" />
    <glyph glyph-name="twosuperior" unicode="&#xb2;" horiz-adv-x="298" 
d="M290 319q0 -11 -14.5 -20.5t-24.5 -9.5q-5 0 -13.5 3t-13 4t-24.5 6q-15 3 -25 3q-8 0 -23.5 -3.5t-23.5 -3.5q-17 0 -32 9q-20 12 -20 32q0 16 29 53.5t32 54.5h-2q-37 -1 -57 -12q-11 -7 -21 -7q-26 0 -26 32q0 30 38 40q51 13 88 13q19 0 32.5 -14.5t13.5 -34.5
q0 -41 -35 -96h9q80 2 101 -25q12 -15 12 -24z" />
    <glyph glyph-name="threesuperior" unicode="&#xb3;" horiz-adv-x="268" 
d="M220 362q0 -31 -37.5 -61t-66.5 -30q-16 0 -32 10q-21 12 -21 33q0 25 43 28t43 17q0 2 -6 0q-8 -3 -12 -3q-13 2 -37 2q-15 0 -28 11l-5 5q-15 13 -15 26q0 16 36 37q-32 -3 -53 -11q-9 -4 -16 -4q-29 0 -29 32q0 19 56 34q45 11 70 11q60 0 60 -38q0 -19 -16 -40
q66 -13 66 -59z" />
    <glyph glyph-name="onehalf" unicode="&#xbd;" horiz-adv-x="526" 
d="M164 346q0 -12 -12 -28q-13 -21 -31 -21q-31 0 -27 42q1 12 1 22t-7 51q-8 47 -16.5 57t-8.5 21q0 22 24 22q30 0 43 -30q10 -24 21 -68q13 -48 13 -68zM403 476q0 -13 -22 -46q-38 -64 -113 -192q-23 -38 -88 -137q-15 -23 -47 -69q-23 -29 -45 -29q-13 0 -23.5 12
t-10.5 26q0 13 12 31q47 65 139 196q107 161 124 214q9 26 40 26q12 0 23 -10t11 -22zM496 16q0 -11 -14.5 -20.5t-23.5 -9.5q-5 0 -13.5 3.5t-13 4t-24.5 5.5q-15 4 -25 4q-8 0 -23.5 -4t-23.5 -4q-17 0 -33 10q-20 11 -20 31q0 16 29 53.5t33 54.5h-2q-38 -1 -57 -12
q-12 -7 -21 -7q-27 0 -27 32q0 30 39 40q51 13 88 13q19 0 32.5 -14.5t13.5 -34.5q0 -41 -35 -96l9 1q80 1 100 -25q12 -16 12 -25z" />
    <glyph glyph-name="onequarter" unicode="&#xbc;" horiz-adv-x="526" 
d="M164 346q0 -12 -12 -28q-13 -21 -31 -21q-31 0 -27 42q1 12 1 22t-7 51q-8 47 -16.5 57t-8.5 21q0 22 24 22q30 0 43 -30q10 -24 21 -68q13 -48 13 -68zM403 476q0 -13 -22 -46q-38 -64 -113 -192q-23 -38 -88 -137q-15 -23 -47 -69q-23 -29 -45 -29q-13 0 -23.5 12
t-10.5 26q0 13 12 31q47 65 139 196q107 161 124 214q9 26 40 26q12 0 23 -10t11 -22zM516 132q0 -11 -17 -22.5t-31 -14.5q-1 -1 -15 -3v-14q0 -11 -1 -33t-1 -33.5t-14.5 -25t-26.5 -13.5q-19 0 -33 18q-12 15 -12 30q0 8 2.5 23.5t2.5 23.5q0 1 3 6q2 4 0 4q-13 0 -39 -2
t-39 -2q-22 0 -39 11q-20 12 -20 32t28 42l44 30q17 16 34 31q22 19 38 19q38 0 62 -75q2 -5 5 -5q4 0 11 1t11 1q47 0 47 -29zM378 141q0 20 -10 20q-5 0 -22.5 -13.5t-17.5 -15.5l8 -1q5 -1 16 -1q26 0 26 11z" />
    <glyph glyph-name="threequarters" unicode="&#xbe;" horiz-adv-x="526" 
d="M220 362q0 -31 -37.5 -61t-66.5 -30q-16 0 -32 10q-21 12 -21 33q0 25 43 28t43 17q0 2 -6 0q-8 -3 -12 -3q-13 2 -37 2q-15 0 -28 11l-5 5q-15 13 -15 26q0 16 36 37q-32 -3 -53 -11q-9 -4 -16 -4q-29 0 -29 32q0 19 56 34q45 11 70 11q60 0 60 -38q0 -19 -16 -40
q66 -13 66 -59zM403 476q0 -13 -22 -46q-38 -64 -113 -192q-23 -38 -88 -137q-15 -23 -47 -69q-23 -29 -45 -29q-13 0 -23.5 12t-10.5 26q0 13 12 31q47 65 139 196q107 161 124 214q9 26 40 26q12 0 23 -10t11 -22zM516 132q0 -11 -17 -22.5t-31 -14.5q-1 -1 -15 -3v-14
q0 -11 -1 -33t-1 -33.5t-14.5 -25t-26.5 -13.5q-19 0 -33 18q-12 15 -12 30q0 8 2.5 23.5t2.5 23.5q0 1 3 6q2 4 0 4q-13 0 -39 -2t-39 -2q-22 0 -39 11q-20 12 -20 32t28 42l44 30q17 16 34 31q22 19 38 19q38 0 62 -75q2 -5 5 -5q4 0 11 1t11 1q47 0 47 -29zM378 141
q0 20 -10 20q-5 0 -22.5 -13.5t-17.5 -15.5l8 -1q5 -1 16 -1q26 0 26 11z" />
    <glyph glyph-name="multiply" unicode="&#xd7;" horiz-adv-x="508" 
d="M432 341q8 -8 7.5 -21.5t-8.5 -21.5q-8 -7 -19 -6.5t-21 0.5q-17 -1 -35 -15.5t-30 -25.5q-6 -5 -12.5 -10.5t-10 -12t-3 -13.5t7.5 -15q20 -23 42 -43.5t46 -39.5q3 -2 8 -7q8 -9 10.5 -20t0.5 -22t-8 -21t-14 -18q-7 -7 -15.5 -7t-16 4.5t-14.5 11t-12 12.5
q-16 18 -28.5 37.5t-28.5 37.5q-8 8 -18.5 15t-21.5 -2q-20 -19 -35 -42.5t-35 -42.5q-6 -5 -17 -11.5t-24 -11.5t-25 -5.5t-18 6.5q-12 13 -8.5 25.5t14 24.5t24 22.5t22.5 18.5q10 9 23.5 22.5t23 28.5t12 31t-10.5 30q-11 13 -28.5 24t-31.5 27q-6 6 -13 15.5t-11.5 20
t-4 21t9.5 18.5q17 15 32.5 16t32.5 -17q13 -14 23 -30t23 -31q13 -14 24.5 -18t27.5 10q10 9 18.5 19.5t19.5 19.5q11 11 24.5 18t30.5 8q14 1 37 -1t34 -13z" />
    <glyph glyph-name="yacute" unicode="&#xfd;" horiz-adv-x="455" 
d="M441 554q0 -7 -14.5 -23t-33 -33.5t-36 -33.5t-24.5 -23q-11 -12 -25.5 -34.5t-31 -44.5t-34 -38t-35.5 -16q-16 0 -30 8t-14 25q0 12 14.5 31t33 38.5t37 36t26.5 23.5q26 23 49 46q7 6 17.5 18t22.5 23t24 19.5t22 8.5q32 0 32 -31zM398 -52q0 -65 -28 -97t-97 -32
q-13 0 -32.5 0.5t-37.5 5t-30.5 14.5t-12.5 29t14 28t33 12t39 2t32 -1q23 0 36 7.5t13 33.5q0 6 -2.5 27.5t-7.5 45t-11.5 41.5t-14.5 18q-11 0 -24.5 -10t-30.5 -21.5t-38 -21.5t-48 -10q-30 0 -49 15t-29 37.5t-13.5 49.5t-3.5 51q0 11 0.5 28t4.5 33t13 27t26 11
q15 0 26 -10t11 -26q0 -18 -4 -37t-4 -38q0 -7 1 -18.5t4.5 -22t9.5 -18t16 -7.5q11 0 23.5 6.5t21.5 11.5q30 20 49.5 41t33.5 54q8 18 14.5 31t29.5 13q15 0 22.5 -8t10.5 -20t2.5 -25t-0.5 -24q0 -29 5 -57t11 -55.5t11 -56t5 -57.5z" />
    <glyph glyph-name="Euro" unicode="&#x20ac;" horiz-adv-x="578" 
d="M571 290q0 -14 -23 -29t-38 -15q-195 0 -248 -10q-12 -1 -36 -6q-14 -29 -15 -63h13q129 0 154 -6t25 -28q0 -24 -56 -28q-33 -2 -121 -1q19 -24 94 -24l90 1q68 0 85 -1q69 -6 69 -30q0 3 -6 -21q-4 -16 -33 -19q-5 -1 -42 -1q-242 0 -290 38q-25 20 -39 55
q-54 -4 -75 -4q-62 0 -63 21q-2 31 44 41q40 6 81 12q1 24 7 46h-2q-17 0 -50 -10t-50 -10q-29 0 -29 23q0 26 32 38q26 7 53 14q29 2 84 13q26 30 69 55q59 35 94 48q50 19 104 19q87 0 87 -39q0 -24 -45 -24q-9 0 -26.5 3.5t-25.5 3.5q-16 0 -38 -7q-50 -17 -104 -45
q29 1 113 7q71 4 113 4q44 0 44 -21z" />
    </font>
</defs>
</svg>
